<svg width="25" height="26" viewBox="0 0 25 26" fill="none" xmlns="http://www.w3.org/2000/svg">
<g clip-path="url(#clip0_19546_22512)">
<path d="M22.1354 25.5001H2.86465C1.28441 25.5001 0 24.2157 0 22.6355V5.44795C0 3.86771 1.28441 2.5835 2.86465 2.5835H22.1354C23.7156 2.5835 25 3.86771 25 5.44795V22.6355C25 24.2157 23.7156 25.5001 22.1354 25.5001ZM2.86465 4.146C2.14691 4.146 1.5625 4.73022 1.5625 5.44795V22.6355C1.5625 23.3532 2.14691 23.9376 2.86465 23.9376H22.1354C22.8531 23.9376 23.4375 23.3532 23.4375 22.6355V5.44795C23.4375 4.73022 22.8531 4.146 22.1354 4.146H2.86465Z" fill="#8B8A84"/>
<path d="M24.2188 10.396H0.78125C0.349998 10.396 0 10.046 0 9.61475C0 9.18349 0.349998 8.8335 0.78125 8.8335H24.2188C24.65 8.8335 25 9.18349 25 9.61475C25 10.046 24.65 10.396 24.2188 10.396Z" fill="#8B8A84"/>
<path d="M5.98975 6.75C5.55849 6.75 5.2085 6.4 5.2085 5.96875V1.28125C5.2085 0.849998 5.55849 0.5 5.98975 0.5C6.421 0.5 6.771 0.849998 6.771 1.28125V5.96875C6.771 6.4 6.421 6.75 5.98975 6.75Z" fill="#8B8A84"/>
<path d="M19.0103 6.75C18.579 6.75 18.229 6.4 18.229 5.96875V1.28125C18.229 0.849998 18.579 0.5 19.0103 0.5C19.4415 0.5 19.7915 0.849998 19.7915 1.28125V5.96875C19.7915 6.4 19.4415 6.75 19.0103 6.75Z" fill="#8B8A84"/>
</g>
<defs>
<clipPath id="clip0_19546_22512">
<rect width="25" height="25" fill="white" transform="translate(0 0.5)"/>
</clipPath>
</defs>
</svg>
