<svg width="25" height="24" viewBox="0 0 25 24" fill="none" xmlns="http://www.w3.org/2000/svg">
<g id="Calendar">
<path d="M0 22.0961C0 16.0557 0 10.0153 0 3.97489C0.0208562 3.90987 0.0423642 3.84485 0.0625686 3.77914C0.396268 2.70566 1.19467 2.09353 2.26485 2.09145C2.73673 2.09076 3.20795 2.08523 3.67982 2.09353C3.87143 2.09699 3.94117 2.01744 3.93531 1.81824C3.92618 1.49039 3.92944 1.16253 3.93465 0.834679C3.94117 0.358806 4.25076 0.0240346 4.67766 0.0212679C5.10716 0.0191929 5.42392 0.351197 5.43239 0.822228C5.43826 1.15008 5.44217 1.47794 5.43109 1.80579C5.42392 2.01883 5.49822 2.09422 5.70026 2.09353C7.62751 2.088 9.5541 2.08869 11.4813 2.09353C11.669 2.09353 11.7466 2.02574 11.7407 1.82239C11.7316 1.48624 11.7342 1.14939 11.7407 0.813237C11.7492 0.356039 12.0627 0.025418 12.4798 0.0212679C12.91 0.0171179 13.2294 0.348431 13.2385 0.818078C13.2443 1.14593 13.2476 1.47379 13.2378 1.80164C13.2313 2.00984 13.2971 2.09422 13.5031 2.09353C15.4303 2.088 17.3569 2.088 19.2842 2.09353C19.4914 2.09353 19.554 2.00638 19.5481 1.79957C19.5384 1.47171 19.5416 1.14386 19.5475 0.816003C19.556 0.358114 19.8662 0.0261096 20.2827 0.0205762C20.7135 0.0150428 21.0361 0.345664 21.0446 0.813237C21.0511 1.14939 21.0537 1.48624 21.0446 1.82239C21.0387 2.02713 21.1195 2.09491 21.3059 2.09215C21.8182 2.08454 22.3305 2.08592 22.8428 2.09076C24.0114 2.10183 24.9955 3.13243 24.9968 4.36914C25.0014 10.1419 25.0007 15.9139 24.9968 21.6866C24.9962 22.9393 24.0133 23.9754 22.8291 23.9761C15.9341 23.9795 9.03986 23.9775 2.14493 23.9788C1.82883 23.9788 1.53293 23.8993 1.25072 23.7582C0.576153 23.4227 0.194223 22.8383 0 22.0961ZM12.489 9.06908C8.94471 9.06908 5.40111 9.06908 1.85685 9.06908C1.60745 9.06908 1.48253 9.20326 1.48209 9.47163C1.48209 13.4398 1.48209 17.4079 1.48209 21.3761C1.48209 22.1155 1.73954 22.3873 2.44213 22.3873C9.13958 22.3873 15.8377 22.3873 22.5351 22.3873C23.2371 22.3873 23.4952 22.1155 23.4952 21.3761C23.4952 17.4079 23.4952 13.4398 23.4952 9.47163C23.4952 9.20372 23.3703 9.06977 23.1204 9.06977C19.5762 9.06977 16.0326 9.06977 12.4883 9.06977L12.489 9.06908ZM12.4916 7.47546C13.6132 7.47546 14.7349 7.47546 15.8572 7.47546C18.2961 7.47546 20.7343 7.47546 23.1732 7.47546C23.3414 7.47546 23.501 7.49552 23.4991 7.22438C23.4913 6.31828 23.5023 5.41288 23.4926 4.50678C23.4874 4.01224 23.1875 3.69752 22.7248 3.68715C22.2451 3.67608 21.7654 3.68922 21.2857 3.68162C21.1052 3.67885 21.04 3.75839 21.0439 3.94445C21.0511 4.27231 21.0485 4.60016 21.0439 4.92802C21.0374 5.41911 20.7252 5.75664 20.2866 5.75318C19.8597 5.74973 19.5514 5.41426 19.5449 4.9377C19.5403 4.60984 19.5364 4.28199 19.5462 3.95414C19.552 3.75286 19.4784 3.68023 19.2887 3.68092C17.3543 3.68507 15.4193 3.68507 13.4848 3.68092C13.3089 3.68092 13.2333 3.74663 13.2378 3.93823C13.2456 4.27438 13.2437 4.61123 13.2378 4.94738C13.23 5.4198 12.9152 5.75318 12.4864 5.7518C12.0588 5.75111 11.7466 5.41565 11.7394 4.94185C11.7342 4.61399 11.7316 4.28614 11.7401 3.95829C11.7453 3.76254 11.6827 3.67885 11.4879 3.67954C9.55345 3.68438 7.61838 3.68438 5.68397 3.67954C5.48975 3.67954 5.42587 3.76116 5.43109 3.95759C5.43956 4.28545 5.43695 4.6133 5.43174 4.94116C5.42457 5.41565 5.11303 5.75042 4.68548 5.75111C4.25662 5.75249 3.94117 5.41841 3.93335 4.94669C3.92814 4.61054 3.92618 4.27369 3.93335 3.93754C3.93791 3.74663 3.86361 3.67677 3.68699 3.67954C3.25618 3.68646 2.82536 3.68092 2.39455 3.68162C1.75779 3.683 1.48275 3.97074 1.48209 4.6389C1.48079 5.44954 1.48209 6.26087 1.48209 7.07152C1.48209 7.33851 1.60745 7.47223 1.85816 7.47269C5.40241 7.47269 8.94666 7.47269 12.4909 7.47269L12.4916 7.47546Z" fill="#8B8A84"/>
<path d="M6.24774 11.6193C6.51561 11.6193 6.78283 11.6117 7.0507 11.6207C7.47304 11.6345 7.77871 11.979 7.7748 12.4237C7.77089 12.8553 7.46718 13.1984 7.05657 13.2067C6.51366 13.2171 5.97009 13.2177 5.42653 13.2067C5.01787 13.1977 4.71611 12.8498 4.71481 12.4175C4.7135 11.9838 5.01396 11.638 5.42066 11.6221C5.6957 11.611 5.97204 11.62 6.24774 11.62V11.6193Z" fill="#8B8A84"/>
<path d="M12.4798 13.2101C12.2204 13.2101 11.961 13.2157 11.7016 13.2088C11.2741 13.1977 10.9632 12.865 10.9593 12.4237C10.9554 11.9686 11.2682 11.6262 11.7075 11.62C12.2263 11.6131 12.7458 11.6131 13.2646 11.62C13.7071 11.6255 14.0206 11.9637 14.0193 12.4175C14.018 12.8705 13.7038 13.2011 13.2587 13.2094C12.9993 13.2143 12.7399 13.2101 12.4805 13.2101H12.4798Z" fill="#8B8A84"/>
<path d="M18.7373 11.6193C19.0052 11.6193 19.2724 11.6117 19.5403 11.6207C19.9627 11.6345 20.2683 11.979 20.2638 12.4244C20.2599 12.856 19.9561 13.1991 19.5455 13.2074C19.0026 13.2177 18.459 13.2184 17.9155 13.2074C17.5068 13.1984 17.2051 12.8505 17.2038 12.4182C17.2025 11.9845 17.5029 11.6393 17.9103 11.6227C18.1853 11.6117 18.4617 11.6207 18.7373 11.6207V11.6193Z" fill="#8B8A84"/>
<path d="M6.24122 14.9317C6.50909 14.9317 6.77631 14.9255 7.04418 14.9331C7.46848 14.9456 7.77611 15.2852 7.7748 15.7299C7.7735 16.1733 7.46522 16.5143 7.03897 16.5212C6.5117 16.5295 5.98508 16.5295 5.45781 16.5212C5.03026 16.515 4.71872 16.1781 4.71481 15.7375C4.7109 15.2824 5.02309 14.9428 5.46237 14.9324C5.72177 14.9262 5.98117 14.931 6.24057 14.9317H6.24122Z" fill="#8B8A84"/>
<path d="M12.4857 14.9317C12.7536 14.9317 13.0208 14.9255 13.2887 14.9331C13.713 14.9456 14.0206 15.2852 14.0193 15.7299C14.018 16.1733 13.7097 16.5143 13.2834 16.5212C12.7562 16.5295 12.2296 16.5295 11.7023 16.5212C11.2747 16.515 10.9632 16.1781 10.9593 15.7375C10.9554 15.2824 11.2676 14.9428 11.7069 14.9324C11.9662 14.9262 12.2256 14.931 12.485 14.9317H12.4857Z" fill="#8B8A84"/>
<path d="M18.7302 14.9317C18.9981 14.9317 19.2653 14.9255 19.5331 14.9331C19.9581 14.9456 20.2651 15.2852 20.2644 15.7292C20.2631 16.1726 19.9548 16.5136 19.5292 16.5205C19.002 16.5295 18.4753 16.5288 17.9481 16.5205C17.5101 16.5143 17.1992 16.1671 17.2051 15.7112C17.2103 15.2713 17.5231 14.9421 17.9526 14.9317C18.212 14.9255 18.4714 14.9303 18.7308 14.931L18.7302 14.9317Z" fill="#8B8A84"/>
<path d="M6.24774 19.8371C5.97987 19.8371 5.71265 19.8433 5.44477 19.8357C5.02113 19.8233 4.7135 19.4823 4.71481 19.0382C4.71611 18.5955 5.02504 18.2545 5.45129 18.2483C5.97856 18.24 6.50518 18.2407 7.03245 18.2483C7.46066 18.2545 7.77155 18.5907 7.7748 19.0327C7.77871 19.4885 7.46652 19.8267 7.02594 19.8371C6.76654 19.8433 6.50714 19.8385 6.24774 19.8378V19.8371Z" fill="#8B8A84"/>
<path d="M12.4844 19.8364C12.2165 19.8364 11.9493 19.844 11.6814 19.835C11.2597 19.8205 10.9547 19.4753 10.9593 19.0292C10.9632 18.5983 11.2682 18.2559 11.6795 18.2483C12.2224 18.2379 12.766 18.2372 13.3095 18.2483C13.7182 18.2573 14.0193 18.6059 14.0193 19.0389C14.0193 19.4726 13.7188 19.8163 13.3115 19.8329C13.0364 19.844 12.7601 19.835 12.4844 19.835V19.8364Z" fill="#8B8A84"/>
<path d="M18.7419 19.8364C18.474 19.8364 18.2068 19.8426 17.9389 19.835C17.5133 19.8233 17.2051 19.4857 17.2038 19.0424C17.2031 18.599 17.5107 18.2538 17.935 18.2469C18.4701 18.2379 19.0052 18.2372 19.5403 18.2469C19.962 18.2552 20.2677 18.6052 20.2631 19.0507C20.2592 19.4823 19.9555 19.8191 19.5436 19.8336C19.2764 19.8433 19.0085 19.8357 18.7406 19.8357L18.7419 19.8364Z" fill="#8B8A84"/>
</g>
</svg>
