<svg width="25" height="26" viewBox="0 0 25 26" fill="none" xmlns="http://www.w3.org/2000/svg">
<path d="M12.5 25.8359C19.3917 25.8359 25 20.2276 25 13.3359C25 6.44428 19.3917 0.835938 12.5 0.835938C5.60828 0.835938 0 6.44428 0 13.3359C0 20.2276 5.60835 25.8359 12.5 25.8359ZM3.33335 12.5026H1.69997C2.10835 7.19431 6.35837 2.94429 11.6667 2.53591V4.16921C11.6667 4.62755 12.0417 5.00253 12.5 5.00253C12.9583 5.00253 13.3333 4.62755 13.3333 4.16921V2.53591C18.6416 2.94422 22.8917 7.19424 23.3 12.5026H21.6667C21.2084 12.5026 20.8334 12.8776 20.8334 13.3359C20.8334 13.7943 21.2084 14.1693 21.6667 14.1693H23.3C22.8917 19.4776 18.6417 23.7276 13.3333 24.136V22.5027C13.3333 22.0443 12.9583 21.6693 12.5 21.6693C12.0417 21.6693 11.6667 22.0443 11.6667 22.5027V24.136C6.35837 23.7277 2.10835 19.4776 1.69997 14.1693H3.33328C3.79162 14.1693 4.1666 13.7943 4.1666 13.3359C4.1666 12.8776 3.79169 12.5026 3.33335 12.5026Z" fill="#8B8A84"/>
<path d="M11.9875 13.9942L15.7375 16.9109C15.8917 17.0276 16.0708 17.0859 16.25 17.0859C16.5 17.0859 16.7458 16.9734 16.9083 16.765C17.1917 16.4025 17.125 15.8775 16.7625 15.5942L13.3333 12.9275V8.33582C13.3333 7.87748 12.9583 7.5025 12.5 7.5025C12.0417 7.5025 11.6667 7.87748 11.6667 8.33582V13.3358C11.6667 13.5942 11.7875 13.8359 11.9875 13.9942Z" fill="#8B8A84"/>
</svg>
