<svg width="17" height="15" viewBox="0 0 17 15" fill="none" xmlns="http://www.w3.org/2000/svg">
<g id="Vector">
<path d="M0 13.0764C0 10.2651 0 7.45376 0 4.64246C2.023 6.13097 4.05025 7.61208 6.06617 9.11242C7.97725 10.5343 9.01992 10.5491 10.9423 9.12722C12.9625 7.63427 14.9812 6.13688 17 4.64246V13.2243C16.4574 13.9863 15.7278 14.1757 14.8368 14.1683C10.557 14.1328 6.27583 14.1343 1.99608 14.1668C1.10075 14.1728 0.44625 13.8783 0 13.0764Z" fill="#45443F"/>
<path d="M17 3.27043C16.5707 3.9138 16.1642 4.56562 15.5012 5.02034C13.6425 6.29722 11.7867 7.58114 9.94925 8.889C8.976 9.58305 8.06083 9.57319 7.09042 8.88618C5.26858 7.59663 3.41983 6.34368 1.59092 5.06398C0.885417 4.56984 0.372583 3.90254 0 3.12965V2.0034C0.364083 1.13056 1.02992 0.826477 1.96492 0.832108C6.32967 0.857448 10.6944 0.854633 15.0577 0.832108C15.9247 0.827884 16.5651 1.12071 17 1.86122V3.27043Z" fill="#45443F"/>
</g>
</svg>
