<svg width="13" height="13" viewBox="0 0 13 13" fill="none" xmlns="http://www.w3.org/2000/svg">
<path d="M7.62805 6.71883C7.50692 6.59769 7.50692 6.4012 7.62805 6.28154L12.9062 1.00457C13.0318 0.879002 13.0318 0.673655 12.9062 0.546606L12.4556 0.0960255C12.3286 -0.0295463 12.1233 -0.0295463 11.9962 0.0960255L6.71808 5.37152C6.60137 5.48822 6.39752 5.48822 6.28229 5.37152L1.00415 0.0945481C0.940627 0.0325009 0.857902 0 0.775177 0C0.690975 0 0.60825 0.0325009 0.544729 0.0960255L0.0941735 0.545129C-0.0313911 0.672178 -0.0313911 0.877525 0.0941735 1.0031L5.37232 6.28006C5.49345 6.4012 5.49345 6.59769 5.37232 6.71735L0.0941735 11.9958C-0.0313911 12.1228 -0.0313911 12.3282 0.0941735 12.4552L0.544729 12.9058C0.671771 13.0314 0.878583 13.0314 1.00415 12.9058L6.28229 7.62885C6.39899 7.51215 6.60285 7.51215 6.71808 7.62885L11.9947 12.9058C12.1203 13.0314 12.3271 13.0314 12.4542 12.9043L12.9047 12.4552C13.0303 12.3282 13.0303 12.1228 12.9032 11.9943L7.62805 6.71883Z" fill="white"/>
</svg>
