<svg width="23" height="31" viewBox="0 0 23 31" fill="none" xmlns="http://www.w3.org/2000/svg">
<path d="M21.8436 7.1993L16.1938 1.85426C15.5929 1.28572 14.8063 0.972656 13.9791 0.972656H3.22266C1.44568 0.972656 0 2.41834 0 4.19531V27.75C0 29.527 1.44568 30.9727 3.22266 30.9727H19.6289C21.4059 30.9727 22.8516 29.527 22.8516 27.75V9.54035C22.8516 8.65857 22.4842 7.80527 21.8436 7.1993ZM20.1364 8.00391H15.7617C15.6002 8.00391 15.4688 7.87248 15.4688 7.71094V3.58805L20.1364 8.00391ZM19.6289 29.2148H3.22266C2.41494 29.2148 1.75781 28.5577 1.75781 27.75V4.19531C1.75781 3.3876 2.41494 2.73047 3.22266 2.73047H13.7109V7.71094C13.7109 8.84174 14.6309 9.76172 15.7617 9.76172H21.0938V27.75C21.0938 28.5577 20.4366 29.2148 19.6289 29.2148Z" fill="#8B8A84"/>
<path d="M17.6953 12.6914H4.80469C4.3193 12.6914 3.92578 13.0849 3.92578 13.5703C3.92578 14.0557 4.3193 14.4492 4.80469 14.4492H17.6953C18.1807 14.4492 18.5742 14.0557 18.5742 13.5703C18.5742 13.0849 18.1807 12.6914 17.6953 12.6914Z" fill="#8B8A84"/>
<path d="M17.6953 17.3789H4.80469C4.3193 17.3789 3.92578 17.7724 3.92578 18.2578C3.92578 18.7432 4.3193 19.1367 4.80469 19.1367H17.6953C18.1807 19.1367 18.5742 18.7432 18.5742 18.2578C18.5742 17.7724 18.1807 17.3789 17.6953 17.3789Z" fill="#8B8A84"/>
<path d="M9.06563 22.0664H4.80469C4.3193 22.0664 3.92578 22.4599 3.92578 22.9453C3.92578 23.4307 4.3193 23.8242 4.80469 23.8242H9.06563C9.55102 23.8242 9.94453 23.4307 9.94453 22.9453C9.94453 22.4599 9.55102 22.0664 9.06563 22.0664Z" fill="#8B8A84"/>
</svg>
