<svg xmlns="http://www.w3.org/2000/svg" width="17" height="15" viewBox="0 0 17 15" fill="none">
  <path d="M0 13.0761C0 10.2648 0 7.45345 0 4.64215C2.023 6.13066 4.05025 7.61177 6.06617 9.11212C7.97725 10.534 9.01992 10.5488 10.9423 9.12691C12.9625 7.63397 14.9812 6.13658 17 4.64215V13.224C16.4574 13.986 15.7278 14.1754 14.8368 14.168C10.557 14.1325 6.27583 14.134 1.99608 14.1665C1.10075 14.1725 0.44625 13.878 0 13.0761Z" fill="#45443F"/>
  <path d="M17 3.27013C16.5707 3.9135 16.1642 4.56531 15.5012 5.02003C13.6425 6.29692 11.7867 7.58084 9.94925 8.88869C8.976 9.58274 8.06083 9.57289 7.09042 8.88588C5.26858 7.59632 3.41983 6.34337 1.59092 5.06368C0.885417 4.56953 0.372583 3.90223 0 3.12935V2.0031C0.364083 1.13026 1.02992 0.826171 1.96492 0.831803C6.32967 0.857143 10.6944 0.854328 15.0577 0.831803C15.9247 0.827579 16.5651 1.1204 17 1.86091V3.27013Z" fill="#45443F"/>
</svg>  