<svg width="16" height="16" viewBox="0 0 16 16" fill="none" xmlns="http://www.w3.org/2000/svg">
<path d="M15.8276 13.6562L9.4484 0.895312C9.17234 0.343062 8.61734 0 8 0C7.38265 0 6.82765 0.343062 6.55156 0.895312L0.172435 13.6562C-0.080409 14.1619 -0.0538778 14.751 0.243372 15.232C0.540591 15.7129 1.05553 16 1.62081 16H14.3792C14.9445 16 15.4594 15.7129 15.7566 15.232C16.0539 14.751 16.0804 14.1619 15.8276 13.6562ZM14.6933 14.5748C14.6608 14.6275 14.565 14.75 14.3792 14.75H1.62081C1.435 14.75 1.33922 14.6275 1.30665 14.5748C1.27409 14.5221 1.20728 14.3815 1.29047 14.2151L7.66962 1.45425C7.76178 1.26991 7.93137 1.25 8 1.25C8.06862 1.25 8.23822 1.26991 8.33037 1.45425L14.7095 14.2152C14.7927 14.3815 14.7259 14.5221 14.6933 14.5748Z" fill="#BE3333"/>
<path d="M8 5.62684C7.65481 5.62684 7.375 5.90665 7.375 6.25184V10.1931C7.375 10.5383 7.65481 10.8181 8 10.8181C8.34519 10.8181 8.62497 10.5383 8.625 10.1931V6.25184C8.625 5.90665 8.34519 5.62684 8 5.62684Z" fill="#BE3333"/>
<path d="M7.98805 13.2236C8.45404 13.2236 8.8318 12.8458 8.8318 12.3798C8.8318 11.9138 8.45404 11.5361 7.98805 11.5361C7.52206 11.5361 7.1443 11.9138 7.1443 12.3798C7.1443 12.8458 7.52206 13.2236 7.98805 13.2236Z" fill="#BE3333"/>
</svg>
