<svg width="30" height="27" viewBox="0 0 30 27" fill="none" xmlns="http://www.w3.org/2000/svg">
<path d="M0 4.29789C0.205078 3.23927 0.633984 2.29927 1.40273 1.54535C2.30273 0.662569 3.37031 0.183841 4.62246 0.183239C9.96328 0.18083 15.3041 0.178422 20.6449 0.184443C23.1762 0.187454 25.2686 2.34203 25.2727 4.94642C25.2785 8.82984 25.2785 12.7132 25.2727 16.5967C25.2686 19.2011 23.1773 21.3556 20.6455 21.3586C15.3533 21.3653 10.0611 21.3376 4.76953 21.3725C2.57578 21.3869 0.532031 19.8165 0.065625 17.5059C0.0480469 17.418 0.0222656 17.3319 0.000585937 17.2452V4.29789H0ZM12.6264 18.9096C15.2033 18.9096 17.7809 18.9114 20.3578 18.909C21.7811 18.9072 22.6963 18.0804 22.8727 16.64C22.8943 16.4618 22.8891 16.2799 22.8891 16.0993C22.8896 12.4778 22.8914 8.85573 22.8891 5.23426C22.8879 3.77159 22.0816 2.83099 20.6807 2.64914C20.584 2.63649 20.4861 2.63408 20.3889 2.63408C15.215 2.63348 10.0412 2.63107 4.86738 2.63468C3.39551 2.63589 2.37598 3.62827 2.37012 5.11262C2.35547 8.88463 2.36133 12.6572 2.36836 16.4293C2.36953 17.1868 2.63379 17.8389 3.20859 18.3399C3.69668 18.7651 4.27324 18.909 4.89492 18.9096C7.47188 18.9108 10.0494 18.9102 12.6264 18.9102V18.9096Z" fill="white"/>
<path d="M30 22.062C29.8559 22.6985 29.6854 23.3247 29.3309 23.8799C28.3963 25.3414 27.0949 26.1676 25.3787 26.1718C19.4719 26.1869 13.565 26.1784 7.6582 26.1772C7.06348 26.1772 6.59766 25.8213 6.45703 25.2728C6.31465 24.7182 6.55957 24.1431 7.05176 23.8631C7.27559 23.736 7.51523 23.7264 7.76133 23.7264C11.9109 23.7282 16.06 23.7276 20.2096 23.7276C21.8496 23.7276 23.4902 23.7294 25.1303 23.727C25.8756 23.7258 26.5295 23.497 27.0404 22.908C27.4898 22.3902 27.6352 21.7717 27.6352 21.1003C27.6352 16.7857 27.6352 12.4712 27.6357 8.15661C27.6357 7.97656 27.6187 7.7953 27.6773 7.61947C27.8314 7.15339 28.1379 6.84688 28.6102 6.76318C29.1158 6.67346 29.5336 6.85471 29.8289 7.2961C29.8945 7.39486 29.9432 7.50566 29.9994 7.61104C29.9994 12.4284 29.9994 17.2458 29.9994 22.0632L30 22.062Z" fill="white"/>
</svg>
