<svg width="24" height="24" viewBox="0 0 24 24" fill="none" xmlns="http://www.w3.org/2000/svg">
<path d="M14.0826 12.404C13.8589 12.1803 13.8589 11.8176 14.0826 11.5967L23.8268 1.8546C24.0586 1.62277 24.0586 1.24367 23.8268 1.00912L22.995 0.177278C22.7605 -0.054547 22.3814 -0.054547 22.1469 0.177278L12.4026 9.91665C12.1872 10.1321 11.8108 10.1321 11.5981 9.91665L1.85381 0.17455C1.73654 0.0600017 1.58382 0 1.4311 0C1.27565 0 1.12292 0.0600017 1.00565 0.177278L0.173859 1.00639C-0.0579529 1.24094 -0.0579529 1.62005 0.173859 1.85187L9.91813 11.594C10.1418 11.8176 10.1418 12.1803 9.91813 12.4013L0.173859 22.1461C-0.0579529 22.3806 -0.0579529 22.7597 0.173859 22.9943L1.00565 23.8261C1.24019 24.058 1.622 24.058 1.85381 23.8261L11.5981 14.084C11.8135 13.8686 12.1899 13.8686 12.4026 14.084L22.1441 23.8261C22.376 24.058 22.7578 24.058 22.9923 23.8234L23.8241 22.9943C24.0559 22.7597 24.0559 22.3806 23.8214 22.1434L14.0826 12.404Z" fill="#0E3C20"/>
</svg>
