<svg width="128" height="78" viewBox="0 0 128 78" fill="none" xmlns="http://www.w3.org/2000/svg">
<path d="M10.9019 59.0621H14.6981V61.6348C13.7831 62.6829 11.9532 63.5595 9.67544 63.5595C5.82084 63.5595 2.97856 60.5295 2.97856 56.5656C2.97856 52.6018 5.82084 49.5908 9.55863 49.5908C11.8753 49.5908 13.861 50.6771 15.0096 52.5828L17.3652 51.2488C15.8856 48.4093 12.8292 46.9229 9.67544 46.9229C4.20502 46.9229 0 51.2488 0 56.5085C0 61.7682 4.22449 66.1703 9.67544 66.1703C13.3938 66.1703 16.1971 64.4743 17.5014 62.6257V56.4704H10.9019V59.0812V59.0621Z" fill="white"/>
<path d="M28.4036 46.9043C23.1863 46.9043 20.7139 50.1249 20.7139 55.2893V65.8469H23.6146V60.0155H33.1926V65.8469H36.0933V55.2893C36.0933 50.1249 33.5625 46.9043 28.4036 46.9043ZM33.2121 57.3665H23.634V55.4418C23.634 51.7448 25.2304 49.5913 28.4231 49.5913C31.6158 49.5913 33.2121 51.7638 33.2121 55.4418V57.3665Z" fill="white"/>
<path d="M37.0469 49.8388H42.8482V65.8276H45.7489V49.8388H51.5892V47.228H37.0469V49.8388Z" fill="white"/>
<path d="M56.8851 57.8046H66.5216V55.2319H56.8851V49.8198H67.0861V47.2471H56.6514C54.6852 47.2471 53.9844 48.219 53.9844 49.8007V63.293C53.9844 64.8747 54.6852 65.8466 56.6514 65.8466H67.2808V63.2739H56.8656V57.8427L56.8851 57.8046Z" fill="white"/>
<path d="M89.1034 62.8191C89.045 63.2003 88.9282 63.4099 88.6751 63.4099C88.422 63.4099 88.3052 63.2193 88.1884 62.8191L84.9178 49.5555C84.5285 47.8404 83.594 47.0781 82.2508 47.0781C80.9075 47.0781 79.973 47.8595 79.6226 49.5746L76.4689 62.8191C76.391 63.2574 76.2158 63.429 75.9822 63.429C75.7486 63.429 75.6123 63.2384 75.5344 62.8191L72.2249 47.2496H69.3242L72.9841 63.6767C73.354 65.3156 74.4637 66.2113 75.9238 66.2113C77.2865 66.2113 78.3962 65.3156 78.766 63.772L81.9782 50.1653C82.0366 49.9176 82.1534 49.8033 82.2702 49.8033C82.4065 49.8033 82.5038 49.9176 82.5622 50.1653L85.8523 63.6005C86.2806 65.2965 87.3318 66.1732 88.8308 66.1732C90.3298 66.1732 91.3616 65.1441 91.6926 63.5052L95.0605 47.2306H92.1598L89.1034 62.8001V62.8191Z" fill="white"/>
<path d="M104.016 46.9043C98.7986 46.9043 96.3262 50.1249 96.3262 55.2893V65.8469H99.2269V60.0155H108.805V65.8469H111.706V55.2893C111.706 50.1249 109.175 46.9043 104.016 46.9043ZM108.824 57.3665H99.2463V55.4418C99.2463 51.7448 100.843 49.5913 104.035 49.5913C107.228 49.5913 108.824 51.7638 108.824 55.4418V57.3665Z" fill="white"/>
<path d="M125.1 47.228V53.4978C125.1 56.0323 123.717 58.0524 120.953 58.0524C118.188 58.0524 116.904 56.0323 116.904 53.4978V47.228H114.003V53.8027C114.003 57.3091 115.911 59.9962 119.512 60.5488V65.8276H122.413V60.5488C126.073 59.9962 128 57.3282 128 53.8027V47.228H125.1Z" fill="white"/>
<path d="M22.2708 77.9215V75.7681H20.2267V77.9215H19.3701V73.1001H20.2267V75.0439H22.2708V73.1001H23.1274V77.9215H22.2708Z" fill="white"/>
<path d="M27.9751 77.9748C27.5857 77.9748 27.2353 77.8986 26.9433 77.7652C26.6513 77.6318 26.4371 77.4221 26.2619 77.1554C26.1062 76.8886 26.0283 76.5455 26.0283 76.1644V74.8495C26.0283 74.4493 26.1062 74.1253 26.2619 73.8585C26.4177 73.5917 26.6513 73.3821 26.9433 73.2487C27.2353 73.1153 27.5663 73.0391 27.9751 73.0391C28.3839 73.0391 28.7149 73.1153 29.0069 73.2487C29.2989 73.3821 29.513 73.5917 29.6882 73.8585C29.844 74.1253 29.9219 74.4493 29.9219 74.8495V76.1644C29.9219 76.5646 29.844 76.8886 29.6882 77.1554C29.5325 77.4221 29.2989 77.6318 29.0069 77.7652C28.7149 77.8986 28.3839 77.9748 27.9751 77.9748ZM27.9751 73.7632C27.6052 73.7632 27.3521 73.8585 27.1769 74.0681C27.0017 74.2778 26.9044 74.5446 26.9044 74.8876V76.1453C26.9044 76.4884 27.0017 76.7552 27.1769 76.9457C27.3521 77.1554 27.6247 77.2506 27.9751 77.2506C28.3255 77.2506 28.5981 77.1554 28.7733 76.9457C28.9485 76.7361 29.0458 76.4693 29.0458 76.1263V74.8685C29.0458 74.5255 28.9485 74.2587 28.7733 74.0491C28.5981 73.8395 28.3255 73.7442 27.9751 73.7442V73.7632Z" fill="white"/>
<path d="M35.9372 73.8243H34.5355V77.9215H33.679V73.8243H32.2578V73.1001H35.9177V73.8243H35.9372Z" fill="white"/>
<path d="M38.5264 77.9215V73.1001H41.7191V73.8243H39.3829V75.063H41.3297V75.7871H39.3829V77.1973H41.7191V77.9215H38.5264Z" fill="white"/>
<path d="M44.4834 77.9215V73.1001H45.34V77.1973H47.5204V77.9215H44.5029H44.4834Z" fill="white"/>
<path d="M51.4134 73.7637C51.2381 73.7637 51.1019 73.7828 50.9851 73.84C50.8877 73.8971 50.8099 73.9543 50.7514 74.0305C50.693 74.1067 50.693 74.202 50.693 74.3164C50.693 74.4307 50.7125 74.526 50.7514 74.6022C50.7904 74.6785 50.8683 74.7356 50.9656 74.7928C51.0629 74.85 51.1992 74.9071 51.3744 74.9834L51.8806 75.1739C52.2115 75.2883 52.4646 75.4217 52.6398 75.536C52.815 75.6694 52.9513 75.8028 53.0292 75.9743C53.107 76.1458 53.146 76.3364 53.146 76.5841C53.146 77.0225 53.0097 77.3655 52.7566 77.6132C52.4841 77.861 52.0753 77.9753 51.5107 77.9753C50.9851 77.9753 50.5762 77.861 50.2648 77.6323C49.9533 77.4036 49.7781 77.0225 49.7002 76.5079H50.5373C50.5762 76.7747 50.6736 76.9653 50.8293 77.0796C50.9656 77.194 51.1992 77.2511 51.5107 77.2511C51.7832 77.2511 51.9974 77.194 52.1142 77.0987C52.231 77.0034 52.2894 76.8509 52.2894 76.6223C52.2894 76.4889 52.2699 76.3936 52.231 76.2983C52.1921 76.2221 52.1142 76.1458 51.9974 76.0696C51.8806 76.0124 51.7248 75.9362 51.5302 75.86L51.0435 75.6885C50.7514 75.5741 50.5178 75.4598 50.3232 75.3455C50.148 75.2311 50.0117 75.0787 49.9338 74.9262C49.8559 74.7737 49.817 74.5641 49.817 74.3164C49.817 74.0686 49.8754 73.84 49.9922 73.6494C50.109 73.4588 50.2842 73.3064 50.5178 73.192C50.7515 73.0777 51.0435 73.0205 51.4134 73.0205C51.9584 73.0205 52.3478 73.1539 52.6204 73.4207C52.8929 73.6875 53.0292 74.0496 53.0486 74.5069H52.2115C52.2115 74.2592 52.1142 74.0686 51.9974 73.9352C51.8806 73.8018 51.6664 73.7447 51.3939 73.7447L51.4134 73.7637Z" fill="white"/>
<path d="M62.4909 77.9197L62.0626 77.4623C61.8679 77.6338 61.6538 77.7672 61.4007 77.8625C61.1476 77.9578 60.8946 77.9959 60.622 77.9959C60.2911 77.9959 59.9991 77.9387 59.7265 77.8244C59.454 77.7101 59.2398 77.5385 59.0646 77.3099C58.9089 77.0812 58.8115 76.8144 58.8115 76.5095C58.8115 76.1665 58.9089 75.8997 59.1035 75.671C59.2982 75.4423 59.5513 75.2517 59.8433 75.1183C59.746 75.004 59.6486 74.8706 59.5902 74.7753C59.5318 74.661 59.4734 74.5657 59.4345 74.4513C59.3956 74.337 59.3761 74.2226 59.3761 74.0892C59.3761 73.8415 59.4345 73.6319 59.5708 73.4413C59.6876 73.2698 59.8628 73.1364 60.0769 73.0411C60.2911 72.9458 60.5247 72.9077 60.7778 72.9077C61.0308 72.9077 61.245 72.9458 61.4397 73.0411C61.6343 73.1364 61.7901 73.2507 61.9069 73.4223C62.0237 73.5938 62.0821 73.7843 62.0821 74.013C62.0821 74.3179 61.9848 74.5847 61.8095 74.8325C61.6343 75.0611 61.4007 75.2517 61.1282 75.3851L62.0626 76.3761C62.121 76.2617 62.1794 76.1283 62.2184 75.9759C62.2573 75.8425 62.2768 75.671 62.2962 75.5185H63.0749C63.036 75.7853 62.9776 76.033 62.8803 76.2808C62.8024 76.5095 62.7051 76.7382 62.5688 76.9287L63.5227 77.9387H62.4714L62.4909 77.9197ZM60.6415 77.2717C60.8167 77.2717 60.9919 77.2527 61.1476 77.1955C61.3034 77.1383 61.4397 77.0621 61.5565 76.9478L60.3105 75.6138C60.1159 75.7091 59.9601 75.8234 59.8628 75.9568C59.746 76.0902 59.6876 76.2617 59.6876 76.4714C59.6876 76.6429 59.7265 76.7763 59.8044 76.9097C59.8822 77.024 59.9991 77.1193 60.1353 77.1765C60.2716 77.2336 60.4273 77.2717 60.6025 77.2717H60.6415ZM60.2132 74.1083C60.2132 74.2417 60.2521 74.356 60.3105 74.4704C60.3884 74.5847 60.4857 74.6991 60.622 74.8515C60.7972 74.7753 60.953 74.68 61.0698 74.5657C61.1866 74.4323 61.245 74.2798 61.245 74.1083C61.245 73.9558 61.206 73.8415 61.1087 73.7462C61.0114 73.6509 60.8946 73.5938 60.7388 73.5938C60.5831 73.5938 60.4468 73.6509 60.3495 73.7462C60.2521 73.8415 60.2132 73.9749 60.2132 74.1274V74.1083Z" fill="white"/>
<path d="M69.7911 76.1301V77.9215H68.9346V73.1001H70.492C70.8813 73.1001 71.2123 73.1573 71.4654 73.2525C71.7184 73.3669 71.9326 73.5193 72.0494 73.729C72.1662 73.9386 72.2441 74.1863 72.2441 74.4913V74.739C72.2441 75.0439 72.1662 75.2916 71.991 75.5203C71.8158 75.73 71.5822 75.8824 71.2707 75.9777L72.4388 77.9024H71.4848L70.4725 76.1111H69.7911V76.1301ZM70.453 73.8243H69.7911V75.406H70.453C70.784 75.406 71.0176 75.3488 71.1734 75.2154C71.3291 75.1011 71.407 74.9296 71.407 74.7199V74.5294C71.407 74.396 71.368 74.2626 71.3096 74.1673C71.2512 74.072 71.1344 73.9767 70.9981 73.9195C70.8619 73.8624 70.6867 73.8243 70.453 73.8243Z" fill="white"/>
<path d="M75.0869 77.9215V73.1001H78.2796V73.8243H75.9435V75.063H77.8903V75.7871H75.9435V77.1973H78.2796V77.9215H75.0869Z" fill="white"/>
<path d="M82.4456 73.7637C82.2704 73.7637 82.1341 73.7828 82.0173 73.84C81.92 73.8971 81.8421 73.9543 81.7837 74.0305C81.7253 74.1067 81.7253 74.202 81.7253 74.3164C81.7253 74.4307 81.7447 74.526 81.7837 74.6022C81.8226 74.6785 81.9005 74.7356 81.9978 74.7928C82.0952 74.85 82.2314 74.9071 82.4066 74.9834L82.9128 75.1739C83.2438 75.2883 83.4968 75.4217 83.672 75.536C83.8472 75.6694 83.9835 75.8028 84.0614 75.9743C84.1393 76.1458 84.1782 76.3364 84.1782 76.5841C84.1782 77.0225 84.0419 77.3655 83.7888 77.6132C83.5163 77.861 83.1075 77.9753 82.5429 77.9753C82.0173 77.9753 81.6085 77.861 81.297 77.6323C80.9855 77.4036 80.8103 77.0225 80.7324 76.5079H81.5695C81.6085 76.7747 81.7058 76.9653 81.8615 77.0796C81.9978 77.194 82.2314 77.2511 82.5429 77.2511C82.8155 77.2511 83.0296 77.194 83.1464 77.0987C83.2632 77.0034 83.3216 76.8509 83.3216 76.6223C83.3216 76.4889 83.3022 76.3936 83.2632 76.2983C83.2243 76.2221 83.1464 76.1458 83.0296 76.0696C82.9128 76.0124 82.7571 75.9362 82.5624 75.86L82.0757 75.6885C81.7837 75.5741 81.5501 75.4598 81.3554 75.3455C81.1802 75.2311 81.0439 75.0787 80.966 74.9262C80.8882 74.7737 80.8492 74.5641 80.8492 74.3164C80.8492 74.0686 80.9076 73.84 81.0244 73.6494C81.1412 73.4588 81.3164 73.3064 81.5501 73.192C81.7837 73.0777 82.0757 73.0205 82.4456 73.0205C82.9907 73.0205 83.38 73.1539 83.6526 73.4207C83.9251 73.6875 84.0614 74.0496 84.0809 74.5069H83.2437C83.2437 74.2592 83.1464 74.0686 83.0296 73.9352C82.9128 73.8018 82.6987 73.7447 82.4261 73.7447L82.4456 73.7637Z" fill="white"/>
<path d="M88.772 77.9748C88.3826 77.9748 88.0322 77.8986 87.7402 77.7652C87.4482 77.6318 87.234 77.4221 87.0588 77.1554C86.9031 76.8886 86.8252 76.5455 86.8252 76.1644V74.8495C86.8252 74.4493 86.9031 74.1253 87.0588 73.8585C87.2146 73.5917 87.4482 73.3821 87.7402 73.2487C88.0322 73.1153 88.3631 73.0391 88.772 73.0391C89.1808 73.0391 89.5117 73.1153 89.8038 73.2487C90.0958 73.3821 90.3099 73.5917 90.4851 73.8585C90.6409 74.1253 90.7187 74.4493 90.7187 74.8495V76.1644C90.7187 76.5646 90.6409 76.8886 90.4851 77.1554C90.3294 77.4221 90.0958 77.6318 89.8038 77.7652C89.5117 77.8986 89.1808 77.9748 88.772 77.9748ZM88.772 73.7632C88.4021 73.7632 88.149 73.8585 87.9738 74.0681C87.7986 74.2778 87.7012 74.5446 87.7012 74.8876V76.1453C87.7012 76.4884 87.7986 76.7552 87.9738 76.9457C88.149 77.1554 88.4215 77.2506 88.772 77.2506C89.1224 77.2506 89.3949 77.1554 89.5701 76.9457C89.7453 76.7361 89.8427 76.4693 89.8427 76.1263V74.8685C89.8427 74.5255 89.7453 74.2587 89.5701 74.0491C89.3949 73.8395 89.1224 73.7442 88.772 73.7442V73.7632Z" fill="white"/>
<path d="M94.4767 76.1301V77.9215H93.6201V73.1001H95.1775C95.5669 73.1001 95.8978 73.1573 96.1509 73.2525C96.404 73.3669 96.6181 73.5193 96.7349 73.729C96.8517 73.9386 96.9296 74.1863 96.9296 74.4913V74.739C96.9296 75.0439 96.8518 75.2916 96.6765 75.5203C96.5013 75.73 96.2677 75.8824 95.9562 75.9777L97.1243 77.9024H96.1704L95.1581 76.1111H94.4767V76.1301ZM95.1386 73.8243H94.4767V75.406H95.1386C95.4695 75.406 95.7032 75.3488 95.8589 75.2154C96.0146 75.1011 96.0925 74.9296 96.0925 74.7199V74.5294C96.0925 74.396 96.0536 74.2626 95.9952 74.1673C95.9368 74.072 95.82 73.9767 95.6837 73.9195C95.5474 73.8624 95.3722 73.8243 95.1386 73.8243Z" fill="white"/>
<path d="M102.945 73.8243H101.543V77.9215H100.687V73.8243H99.2656V73.1001H102.926V73.8243H102.945Z" fill="white"/>
<path d="M106.877 73.7637C106.702 73.7637 106.566 73.7828 106.449 73.84C106.352 73.8971 106.274 73.9543 106.215 74.0305C106.157 74.1067 106.157 74.202 106.157 74.3164C106.157 74.4307 106.176 74.526 106.215 74.6022C106.254 74.6785 106.332 74.7356 106.429 74.7928C106.527 74.85 106.663 74.9071 106.838 74.9834L107.344 75.1739C107.675 75.2883 107.928 75.4217 108.104 75.536C108.279 75.6694 108.415 75.8028 108.493 75.9743C108.571 76.1458 108.61 76.3364 108.61 76.5841C108.61 77.0225 108.474 77.3655 108.22 77.6132C107.948 77.861 107.539 77.9753 106.975 77.9753C106.449 77.9753 106.04 77.861 105.729 77.6323C105.417 77.4036 105.242 77.0225 105.164 76.5079H106.001C106.04 76.7747 106.137 76.9653 106.293 77.0796C106.429 77.194 106.663 77.2511 106.975 77.2511C107.247 77.2511 107.461 77.194 107.578 77.0987C107.695 77.0034 107.753 76.8509 107.753 76.6223C107.753 76.4889 107.734 76.3936 107.695 76.2983C107.656 76.2221 107.578 76.1458 107.461 76.0696C107.344 76.0124 107.189 75.9362 106.994 75.86L106.507 75.6885C106.215 75.5741 105.982 75.4598 105.787 75.3455C105.612 75.2311 105.476 75.0787 105.398 74.9262C105.32 74.7737 105.281 74.5641 105.281 74.3164C105.281 74.0686 105.339 73.84 105.456 73.6494C105.573 73.4588 105.748 73.3064 105.982 73.192C106.215 73.0777 106.507 73.0205 106.877 73.0205C107.422 73.0205 107.812 73.1539 108.084 73.4207C108.357 73.6875 108.493 74.0496 108.513 74.5069H107.675C107.675 74.2592 107.578 74.0686 107.461 73.9352C107.344 73.8018 107.13 73.7447 106.858 73.7447L106.877 73.7637Z" fill="white"/>
<path d="M63.9902 0C58.2083 0 53.5166 4.59272 53.5166 10.2526V37.5993H74.4833V10.2526C74.4833 4.61177 69.7721 0 64.0097 0H63.9902ZM67.7085 26.3367H60.2914V16.7891C60.2914 14.7882 61.9461 13.1683 63.9902 13.1683C66.0343 13.1683 67.6891 14.7882 67.6891 16.7891V26.3367H67.7085Z" fill="#FCB415"/>
<path d="M67.906 26.3901H60.0938V16.6165C60.0938 14.5666 61.8446 12.9014 63.9999 12.9014C66.1551 12.9014 67.906 14.5666 67.906 16.6165V26.3901Z" fill="white"/>
</svg>
