<svg width="128" height="78" viewBox="0 0 128 78" fill="none" xmlns="http://www.w3.org/2000/svg">
<path d="M10.9019 59.0611H14.6981V61.6338C13.7831 62.6819 11.9532 63.5586 9.67544 63.5586C5.82084 63.5586 2.97856 60.5285 2.97856 56.5647C2.97856 52.6008 5.82084 49.5898 9.55863 49.5898C11.8753 49.5898 13.861 50.6761 15.0096 52.5818L17.3652 51.2478C15.8856 48.4083 12.8292 46.9219 9.67544 46.9219C4.20502 46.9219 0 51.2478 0 56.5075C0 61.7672 4.22449 66.1694 9.67544 66.1694C13.3938 66.1694 16.1971 64.4733 17.5014 62.6248V56.4694H10.9019V59.0802V59.0611Z" fill="#0E3C20"/>
<path d="M28.4034 46.9062C23.186 46.9062 20.7136 50.1269 20.7136 55.2913V65.8488H23.6143V60.0174H33.1924V65.8488H36.0931V55.2913C36.0931 50.1269 33.5623 46.9062 28.4034 46.9062ZM33.2119 57.3685H23.6338V55.4437C23.6338 51.7467 25.2301 49.5933 28.4228 49.5933C31.6155 49.5933 33.2119 51.7658 33.2119 55.4437V57.3685Z" fill="#0E3C20"/>
<path d="M37.0469 49.8374H42.8483V65.8261H45.749V49.8374H51.5893V47.2266H37.0469V49.8374Z" fill="#0E3C20"/>
<path d="M56.8846 57.8075H66.5211V55.2348H56.8846V49.8227H67.0856V47.25H56.651C54.6847 47.25 53.9839 48.2219 53.9839 49.8036V63.2959C53.9839 64.8776 54.6847 65.8495 56.651 65.8495H67.2803V63.2769H56.8651V57.8456L56.8846 57.8075Z" fill="#0E3C20"/>
<path d="M89.1036 62.8191C89.0452 63.2003 88.9284 63.4099 88.6753 63.4099C88.4222 63.4099 88.3054 63.2193 88.1886 62.8191L84.918 49.5555C84.5287 47.8404 83.5942 47.0781 82.2509 47.0781C80.9077 47.0781 79.9732 47.8595 79.6228 49.5746L76.469 62.8191C76.3912 63.2574 76.216 63.429 75.9823 63.429C75.7487 63.429 75.6125 63.2384 75.5346 62.8191L72.2251 47.2496H69.3244L72.9843 63.6767C73.3542 65.3156 74.4639 66.2113 75.9239 66.2113C77.2867 66.2113 78.3963 65.3156 78.7662 63.772L81.9784 50.1653C82.0368 49.9176 82.1536 49.8033 82.2704 49.8033C82.4067 49.8033 82.504 49.9176 82.5624 50.1653L85.8525 63.6005C86.2808 65.2965 87.332 66.1732 88.831 66.1732C90.33 66.1732 91.3618 65.1441 91.6928 63.5052L95.0607 47.2306H92.16L89.1036 62.8001V62.8191Z" fill="#0E3C20"/>
<path d="M104.016 46.9062C98.7986 46.9062 96.3262 50.1269 96.3262 55.2913V65.8488H99.2269V60.0174H108.805V65.8488H111.706V55.2913C111.706 50.1269 109.175 46.9062 104.016 46.9062ZM108.824 57.3685H99.2463V55.4437C99.2463 51.7467 100.843 49.5933 104.035 49.5933C107.228 49.5933 108.824 51.7658 108.824 55.4437V57.3685Z" fill="#0E3C20"/>
<path d="M125.099 47.2266V53.4963C125.099 56.0309 123.717 58.0509 120.953 58.0509C118.188 58.0509 116.903 56.0309 116.903 53.4963V47.2266H114.003V53.8012C114.003 57.3077 115.911 59.9947 119.512 60.5473V65.8261H122.413V60.5473C126.073 59.9947 128 57.3267 128 53.8012V47.2266H125.099Z" fill="#0E3C20"/>
<path d="M22.2709 77.923V75.7695H20.2268V77.923H19.3702V73.1016H20.2268V75.0454H22.2709V73.1016H23.1275V77.923H22.2709Z" fill="#0E3C20"/>
<path d="M27.975 77.9748C27.5857 77.9748 27.2353 77.8986 26.9432 77.7652C26.6512 77.6318 26.4371 77.4221 26.2619 77.1554C26.1061 76.8886 26.0283 76.5455 26.0283 76.1644V74.8495C26.0283 74.4493 26.1061 74.1253 26.2619 73.8585C26.4176 73.5917 26.6512 73.3821 26.9432 73.2487C27.2353 73.1153 27.5662 73.0391 27.975 73.0391C28.3838 73.0391 28.7148 73.1153 29.0068 73.2487C29.2988 73.3821 29.513 73.5917 29.6882 73.8585C29.8439 74.1253 29.9218 74.4493 29.9218 74.8495V76.1644C29.9218 76.5646 29.8439 76.8886 29.6882 77.1554C29.5324 77.4221 29.2988 77.6318 29.0068 77.7652C28.7148 77.8986 28.3838 77.9748 27.975 77.9748ZM27.975 73.7632C27.6051 73.7632 27.3521 73.8585 27.1769 74.0681C27.0016 74.2778 26.9043 74.5446 26.9043 74.8876V76.1453C26.9043 76.4884 27.0016 76.7552 27.1769 76.9457C27.3521 77.1554 27.6246 77.2506 27.975 77.2506C28.3254 77.2506 28.598 77.1554 28.7732 76.9457C28.9484 76.7361 29.0458 76.4693 29.0458 76.1263V74.8685C29.0458 74.5255 28.9484 74.2587 28.7732 74.0491C28.598 73.8395 28.3254 73.7442 27.975 73.7442V73.7632Z" fill="#0E3C20"/>
<path d="M35.9373 73.8257H34.5356V77.923H33.679V73.8257H32.2579V73.1016H35.9178V73.8257H35.9373Z" fill="#0E3C20"/>
<path d="M38.5265 77.923V73.1016H41.7192V73.8257H39.3831V75.0644H41.3298V75.7886H39.3831V77.1988H41.7192V77.923H38.5265Z" fill="#0E3C20"/>
<path d="M44.4835 77.923V73.1016H45.3401V77.1988H47.5205V77.923H44.503H44.4835Z" fill="#0E3C20"/>
<path d="M51.4141 73.7588C51.2389 73.7588 51.1026 73.7779 50.9858 73.8351C50.8885 73.8922 50.8106 73.9494 50.7522 74.0256C50.6938 74.1019 50.6938 74.1972 50.6938 74.3115C50.6938 74.4258 50.7132 74.5211 50.7522 74.5974C50.7911 74.6736 50.869 74.7307 50.9663 74.7879C51.0637 74.8451 51.1999 74.9023 51.3751 74.9785L51.8813 75.1691C52.2123 75.2834 52.4653 75.4168 52.6406 75.5311C52.8158 75.6645 52.952 75.7979 53.0299 75.9694C53.1078 76.141 53.1467 76.3315 53.1467 76.5793C53.1467 77.0176 53.0104 77.3606 52.7574 77.6083C52.4848 77.8561 52.076 77.9704 51.5114 77.9704C50.9858 77.9704 50.577 77.8561 50.2655 77.6274C49.954 77.3987 49.7788 77.0176 49.7009 76.503H50.538C50.577 76.7698 50.6743 76.9604 50.8301 77.0747C50.9663 77.1891 51.1999 77.2463 51.5114 77.2463C51.784 77.2463 51.9981 77.1891 52.1149 77.0938C52.2317 76.9985 52.2901 76.8461 52.2901 76.6174C52.2901 76.484 52.2707 76.3887 52.2317 76.2934C52.1928 76.2172 52.1149 76.141 51.9981 76.0647C51.8813 76.0076 51.7256 75.9313 51.5309 75.8551L51.0442 75.6836C50.7522 75.5693 50.5186 75.4549 50.3239 75.3406C50.1487 75.2262 50.0124 75.0738 49.9345 74.9213C49.8567 74.7689 49.8177 74.5592 49.8177 74.3115C49.8177 74.0638 49.8761 73.8351 49.9929 73.6445C50.1097 73.4539 50.285 73.3015 50.5186 73.1871C50.7522 73.0728 51.0442 73.0156 51.4141 73.0156C51.9592 73.0156 52.3485 73.149 52.6211 73.4158C52.8936 73.6826 53.0299 74.0447 53.0494 74.5021H52.2123C52.2123 74.2543 52.1149 74.0638 51.9981 73.9304C51.8813 73.797 51.6672 73.7398 51.3946 73.7398L51.4141 73.7588Z" fill="#0E3C20"/>
<path d="M62.4911 77.9182L62.0628 77.4609C61.8681 77.6324 61.654 77.7658 61.4009 77.861C61.1478 77.9563 60.8947 77.9944 60.6222 77.9944C60.2913 77.9944 59.9992 77.9373 59.7267 77.8229C59.4541 77.7086 59.24 77.5371 59.0648 77.3084C58.909 77.0797 58.8117 76.8129 58.8117 76.508C58.8117 76.165 58.909 75.8982 59.1037 75.6695C59.2984 75.4408 59.5515 75.2502 59.8435 75.1169C59.7462 75.0025 59.6488 74.8691 59.5904 74.7738C59.532 74.6595 59.4736 74.5642 59.4347 74.4499C59.3957 74.3355 59.3763 74.2212 59.3763 74.0878C59.3763 73.84 59.4347 73.6304 59.5709 73.4398C59.6878 73.2683 59.863 73.1349 60.0771 73.0397C60.2913 72.9444 60.5249 72.9062 60.7779 72.9062C61.031 72.9062 61.2452 72.9444 61.4398 73.0397C61.6345 73.1349 61.7903 73.2493 61.9071 73.4208C62.0239 73.5923 62.0823 73.7829 62.0823 74.0116C62.0823 74.3165 61.9849 74.5833 61.8097 74.831C61.6345 75.0597 61.4009 75.2503 61.1284 75.3837L62.0628 76.3746C62.1212 76.2603 62.1796 76.1269 62.2185 75.9744C62.2575 75.841 62.277 75.6695 62.2964 75.5171H63.0751C63.0362 75.7838 62.9778 76.0316 62.8805 76.2793C62.8026 76.508 62.7052 76.7367 62.569 76.9273L63.5229 77.9373H62.4716L62.4911 77.9182ZM60.6417 77.2703C60.8169 77.2703 60.9921 77.2512 61.1478 77.1941C61.3036 77.1369 61.4398 77.0607 61.5567 76.9463L60.3107 75.6123C60.116 75.7076 59.9603 75.822 59.863 75.9554C59.7462 76.0888 59.6878 76.2603 59.6878 76.4699C59.6878 76.6414 59.7267 76.7748 59.8046 76.9082C59.8824 77.0225 59.9992 77.1178 60.1355 77.175C60.2718 77.2322 60.4275 77.2703 60.6027 77.2703H60.6417ZM60.2134 74.1068C60.2134 74.2402 60.2523 74.3546 60.3107 74.4689C60.3886 74.5833 60.4859 74.6976 60.6222 74.8501C60.7974 74.7738 60.9532 74.6785 61.07 74.5642C61.1868 74.4308 61.2452 74.2783 61.2452 74.1068C61.2452 73.9544 61.2062 73.84 61.1089 73.7448C61.0116 73.6495 60.8948 73.5923 60.739 73.5923C60.5833 73.5923 60.447 73.6495 60.3497 73.7448C60.2523 73.84 60.2134 73.9734 60.2134 74.1259V74.1068Z" fill="#0E3C20"/>
<path d="M69.7915 76.1316V77.923H68.9349V73.1016H70.4923C70.8817 73.1016 71.2127 73.1587 71.4657 73.254C71.7188 73.3684 71.933 73.5208 72.0498 73.7304C72.1666 73.9401 72.2444 74.1878 72.2444 74.4927V74.7405C72.2444 75.0454 72.1666 75.2931 71.9914 75.5218C71.8162 75.7314 71.5825 75.8839 71.2711 75.9792L72.4391 77.9039H71.4852L70.4729 76.1126H69.7915V76.1316ZM70.4534 73.8257H69.7915V75.4074H70.4534C70.7844 75.4074 71.018 75.3503 71.1737 75.2169C71.3295 75.1025 71.4073 74.931 71.4073 74.7214V74.5308C71.4073 74.3974 71.3684 74.264 71.31 74.1687C71.2516 74.0735 71.1348 73.9782 70.9985 73.921C70.8622 73.8638 70.687 73.8257 70.4534 73.8257Z" fill="#0E3C20"/>
<path d="M75.0868 77.923V73.1016H78.2795V73.8257H75.9434V75.0644H77.8901V75.7886H75.9434V77.1988H78.2795V77.923H75.0868Z" fill="#0E3C20"/>
<path d="M82.4455 73.7588C82.2702 73.7588 82.134 73.7779 82.0172 73.8351C81.9198 73.8922 81.842 73.9494 81.7835 74.0256C81.7251 74.1019 81.7251 74.1972 81.7251 74.3115C81.7251 74.4258 81.7446 74.5211 81.7835 74.5974C81.8225 74.6736 81.9004 74.7307 81.9977 74.7879C82.095 74.8451 82.2313 74.9023 82.4065 74.9785L82.9127 75.1691C83.2436 75.2834 83.4967 75.4168 83.6719 75.5311C83.8471 75.6645 83.9834 75.7979 84.0613 75.9694C84.1391 76.141 84.1781 76.3315 84.1781 76.5793C84.1781 77.0176 84.0418 77.3606 83.7887 77.6083C83.5162 77.8561 83.1074 77.9704 82.5428 77.9704C82.0172 77.9704 81.6083 77.8561 81.2969 77.6274C80.9854 77.3987 80.8102 77.0176 80.7323 76.503H81.5694C81.6083 76.7698 81.7057 76.9604 81.8614 77.0747C81.9977 77.1891 82.2313 77.2463 82.5428 77.2463C82.8153 77.2463 83.0295 77.1891 83.1463 77.0938C83.2631 76.9985 83.3215 76.8461 83.3215 76.6174C83.3215 76.484 83.302 76.3887 83.2631 76.2934C83.2242 76.2172 83.1463 76.141 83.0295 76.0647C82.9127 76.0076 82.7569 75.9313 82.5623 75.8551L82.0756 75.6836C81.7836 75.5693 81.5499 75.4549 81.3553 75.3406C81.1801 75.2262 81.0438 75.0738 80.9659 74.9213C80.888 74.7689 80.8491 74.5592 80.8491 74.3115C80.8491 74.0638 80.9075 73.8351 81.0243 73.6445C81.1411 73.4539 81.3163 73.3015 81.5499 73.1871C81.7836 73.0728 82.0756 73.0156 82.4455 73.0156C82.9905 73.0156 83.3799 73.149 83.6525 73.4158C83.925 73.6826 84.0613 74.0447 84.0807 74.5021H83.2436C83.2436 74.2543 83.1463 74.0638 83.0295 73.9304C82.9127 73.797 82.6985 73.7398 82.426 73.7398L82.4455 73.7588Z" fill="#0E3C20"/>
<path d="M88.7726 77.9748C88.3832 77.9748 88.0328 77.8986 87.7408 77.7652C87.4488 77.6318 87.2346 77.4221 87.0594 77.1554C86.9037 76.8886 86.8258 76.5455 86.8258 76.1644V74.8495C86.8258 74.4493 86.9037 74.1253 87.0594 73.8585C87.2152 73.5917 87.4488 73.3821 87.7408 73.2487C88.0328 73.1153 88.3638 73.0391 88.7726 73.0391C89.1814 73.0391 89.5123 73.1153 89.8044 73.2487C90.0964 73.3821 90.3105 73.5917 90.4857 73.8585C90.6415 74.1253 90.7193 74.4493 90.7193 74.8495V76.1644C90.7193 76.5646 90.6415 76.8886 90.4857 77.1554C90.33 77.4221 90.0964 77.6318 89.8044 77.7652C89.5123 77.8986 89.1814 77.9748 88.7726 77.9748ZM88.7726 73.7632C88.4027 73.7632 88.1496 73.8585 87.9744 74.0681C87.7992 74.2778 87.7019 74.5446 87.7019 74.8876V76.1453C87.7019 76.4884 87.7992 76.7552 87.9744 76.9457C88.1496 77.1554 88.4222 77.2506 88.7726 77.2506C89.123 77.2506 89.3955 77.1554 89.5707 76.9457C89.746 76.7361 89.8433 76.4693 89.8433 76.1263V74.8685C89.8433 74.5255 89.746 74.2587 89.5707 74.0491C89.3955 73.8395 89.123 73.7442 88.7726 73.7442V73.7632Z" fill="#0E3C20"/>
<path d="M94.4765 76.1316V77.923H93.6199V73.1016H95.1773C95.5667 73.1016 95.8977 73.1587 96.1507 73.254C96.4038 73.3684 96.618 73.5208 96.7348 73.7304C96.8516 73.9401 96.9294 74.1878 96.9294 74.4927V74.7405C96.9294 75.0454 96.8516 75.2931 96.6764 75.5218C96.5012 75.7314 96.2675 75.8839 95.9561 75.9792L97.1241 77.9039H96.1702L95.1579 76.1126H94.4765V76.1316ZM95.1384 73.8257H94.4765V75.4074H95.1384C95.4694 75.4074 95.703 75.3503 95.8587 75.2169C96.0145 75.1025 96.0923 74.931 96.0923 74.7214V74.5308C96.0923 74.3974 96.0534 74.264 95.995 74.1687C95.9366 74.0735 95.8198 73.9782 95.6835 73.921C95.5472 73.8638 95.372 73.8257 95.1384 73.8257Z" fill="#0E3C20"/>
<path d="M102.945 73.8257H101.543V77.923H100.687V73.8257H99.2656V73.1016H102.926V73.8257H102.945Z" fill="#0E3C20"/>
<path d="M106.877 73.7588C106.702 73.7588 106.566 73.7779 106.449 73.8351C106.352 73.8922 106.274 73.9494 106.216 74.0256C106.157 74.1019 106.157 74.1972 106.157 74.3115C106.157 74.4258 106.177 74.5211 106.216 74.5974C106.254 74.6736 106.332 74.7307 106.43 74.7879C106.527 74.8451 106.663 74.9023 106.838 74.9785L107.345 75.1691C107.676 75.2834 107.929 75.4168 108.104 75.5311C108.279 75.6645 108.415 75.7979 108.493 75.9694C108.571 76.141 108.61 76.3315 108.61 76.5793C108.61 77.0176 108.474 77.3606 108.221 77.6083C107.948 77.8561 107.539 77.9704 106.975 77.9704C106.449 77.9704 106.04 77.8561 105.729 77.6274C105.417 77.3987 105.242 77.0176 105.164 76.503H106.001C106.04 76.7698 106.138 76.9604 106.293 77.0747C106.43 77.1891 106.663 77.2463 106.975 77.2463C107.247 77.2463 107.461 77.1891 107.578 77.0938C107.695 76.9985 107.753 76.8461 107.753 76.6174C107.753 76.484 107.734 76.3887 107.695 76.2934C107.656 76.2172 107.578 76.141 107.461 76.0647C107.345 76.0076 107.189 75.9313 106.994 75.8551L106.508 75.6836C106.215 75.5693 105.982 75.4549 105.787 75.3406C105.612 75.2262 105.476 75.0738 105.398 74.9213C105.32 74.7689 105.281 74.5592 105.281 74.3115C105.281 74.0638 105.339 73.8351 105.456 73.6445C105.573 73.4539 105.748 73.3015 105.982 73.1871C106.215 73.0728 106.508 73.0156 106.877 73.0156C107.422 73.0156 107.812 73.149 108.084 73.4158C108.357 73.6826 108.493 74.0447 108.513 74.5021H107.676C107.676 74.2543 107.578 74.0638 107.461 73.9304C107.345 73.797 107.13 73.7398 106.858 73.7398L106.877 73.7588Z" fill="#0E3C20"/>
<path d="M63.9902 0C58.2083 0 53.5166 4.59272 53.5166 10.2526V37.5993H74.4833V10.2526C74.4833 4.61177 69.7721 0 64.0097 0H63.9902ZM67.7085 26.3367H60.2914V16.7891C60.2914 14.7882 61.9461 13.1683 63.9902 13.1683C66.0343 13.1683 67.6891 14.7882 67.6891 16.7891V26.3367H67.7085Z" fill="#FCB415"/>
<path d="M67.9061 26.3872H60.0939V16.6135C60.0939 14.5637 61.8447 12.8984 64 12.8984C66.1552 12.8984 67.9061 14.5637 67.9061 16.6135V26.3872Z" fill="#0E3C20"/>
</svg>
