<svg width="49" height="31" viewBox="0 0 49 31" fill="none" xmlns="http://www.w3.org/2000/svg">
<path d="M4.17338 23.1655H5.62662V24.1747C5.27635 24.5858 4.57582 24.9297 3.70388 24.9297C2.22829 24.9297 1.14023 23.7411 1.14023 22.1863C1.14023 20.6314 2.22829 19.4503 3.65916 19.4503C4.54601 19.4503 5.30616 19.8764 5.74586 20.624L6.64761 20.1007C6.08122 18.9869 4.91118 18.4038 3.70388 18.4038C1.60973 18.4038 0 20.1007 0 22.1639C0 24.227 1.61719 25.9538 3.70388 25.9538C5.1273 25.9538 6.20046 25.2885 6.69977 24.5634V22.1489H4.17338V23.173V23.1655Z" fill="#F2F0ED"/>
<path d="M10.8734 18.3965C8.87615 18.3965 7.92969 19.6598 7.92969 21.6856V25.8269H9.04011V23.5395H12.7067V25.8269H13.8171V21.6856C13.8171 19.6598 12.8483 18.3965 10.8734 18.3965ZM12.7142 22.5004H9.04756V21.7454C9.04756 20.2952 9.65866 19.4505 10.8809 19.4505C12.1031 19.4505 12.7142 20.3027 12.7142 21.7454V22.5004Z" fill="#F2F0ED"/>
<path d="M14.1816 19.5475H16.4025V25.8193H17.5129V19.5475H19.7486V18.5234H14.1816V19.5475Z" fill="#F2F0ED"/>
<path d="M21.7764 22.6725H25.4654V21.6634H21.7764V19.5404H25.6815V18.5312H21.687C20.9343 18.5312 20.666 18.9125 20.666 19.5329V24.8254C20.666 25.4459 20.9343 25.8271 21.687 25.8271H25.7561V24.8179H21.769V22.6875L21.7764 22.6725Z" fill="#F2F0ED"/>
<path d="M34.1098 24.6384C34.0874 24.7879 34.0427 24.8702 33.9458 24.8702C33.849 24.8702 33.8042 24.7954 33.7595 24.6384L32.5075 19.4357C32.3585 18.7629 32.0007 18.4639 31.4865 18.4639C30.9723 18.4639 30.6146 18.7704 30.4804 19.4431L29.2731 24.6384C29.2433 24.8104 29.1763 24.8776 29.0868 24.8776C28.9974 24.8776 28.9452 24.8029 28.9154 24.6384L27.6485 18.5311H26.5381L27.9392 24.9748C28.0807 25.6177 28.5055 25.969 29.0645 25.969C29.5861 25.969 30.0109 25.6177 30.1525 25.0122L31.3822 19.6749C31.4046 19.5777 31.4493 19.5328 31.494 19.5328C31.5461 19.5328 31.5834 19.5777 31.6058 19.6749L32.8652 24.9449C33.0292 25.6102 33.4316 25.9541 34.0055 25.9541C34.5793 25.9541 34.9743 25.5504 35.101 24.9075L36.3903 18.5237H35.2798L34.1098 24.631V24.6384Z" fill="#F2F0ED"/>
<path d="M39.8187 18.3965C37.8215 18.3965 36.875 19.6598 36.875 21.6856V25.8269H37.9854V23.5395H41.652V25.8269H42.7625V21.6856C42.7625 19.6598 41.7936 18.3965 39.8187 18.3965ZM41.6595 22.5004H37.9929V21.7454C37.9929 20.2952 38.604 19.4505 39.8262 19.4505C41.0484 19.4505 41.6595 20.3027 41.6595 21.7454V22.5004Z" fill="#F2F0ED"/>
<path d="M47.8895 18.5234V20.9828C47.8895 21.977 47.3604 22.7694 46.3021 22.7694C45.2439 22.7694 44.752 21.977 44.752 20.9828V18.5234H43.6416V21.1024C43.6416 22.4778 44.3719 23.5319 45.7507 23.7486V25.8193H46.8611V23.7486C48.2621 23.5319 48.9999 22.4853 48.9999 21.1024V18.5234H47.8895Z" fill="#F2F0ED"/>
<path d="M8.52546 30.5665V29.7218H7.74295V30.5665H7.41504V28.6753H7.74295V29.4378H8.52546V28.6753H8.85337V30.5665H8.52546Z" fill="#F2F0ED"/>
<path d="M10.7091 30.5889C10.5601 30.5889 10.4259 30.559 10.3141 30.5067C10.2023 30.4544 10.1204 30.3721 10.0533 30.2675C9.99368 30.1628 9.96387 30.0283 9.96387 29.8788V29.363C9.96387 29.206 9.99368 29.0789 10.0533 28.9743C10.1129 28.8696 10.2023 28.7874 10.3141 28.7351C10.4259 28.6827 10.5526 28.6528 10.7091 28.6528C10.8656 28.6528 10.9923 28.6827 11.1041 28.7351C11.2159 28.7874 11.2979 28.8696 11.3649 28.9743C11.4246 29.0789 11.4544 29.206 11.4544 29.363V29.8788C11.4544 30.0358 11.4246 30.1628 11.3649 30.2675C11.3053 30.3721 11.2159 30.4544 11.1041 30.5067C10.9923 30.559 10.8656 30.5889 10.7091 30.5889ZM10.7091 28.9369C10.5675 28.9369 10.4706 28.9743 10.4036 29.0565C10.3365 29.1387 10.2992 29.2434 10.2992 29.3779V29.8713C10.2992 30.0059 10.3365 30.1105 10.4036 30.1853C10.4706 30.2675 10.575 30.3049 10.7091 30.3049C10.8433 30.3049 10.9476 30.2675 11.0147 30.1853C11.0817 30.103 11.119 29.9984 11.119 29.8638V29.3705C11.119 29.2359 11.0817 29.1312 11.0147 29.049C10.9476 28.9668 10.8433 28.9294 10.7091 28.9294V28.9369Z" fill="#F2F0ED"/>
<path d="M13.7571 28.9594H13.2206V30.5665H12.8927V28.9594H12.3486V28.6753H13.7497V28.9594H13.7571Z" fill="#F2F0ED"/>
<path d="M14.748 30.5665V28.6753H15.9703V28.9594H15.076V29.4452H15.8212V29.7293H15.076V30.2825H15.9703V30.5665H14.748Z" fill="#F2F0ED"/>
<path d="M17.0293 30.5665V28.6753H17.3572V30.2825H18.1919V30.5665H17.0367H17.0293Z" fill="#F2F0ED"/>
<path d="M19.6822 28.9366C19.6151 28.9366 19.5629 28.944 19.5182 28.9665C19.481 28.9889 19.4512 29.0113 19.4288 29.0412C19.4064 29.0711 19.4064 29.1085 19.4064 29.1533C19.4064 29.1982 19.4139 29.2356 19.4288 29.2655C19.4437 29.2954 19.4735 29.3178 19.5108 29.3402C19.548 29.3626 19.6002 29.3851 19.6673 29.415L19.861 29.4897C19.9877 29.5346 20.0846 29.5869 20.1517 29.6318C20.2188 29.6841 20.2709 29.7364 20.3007 29.8037C20.3306 29.871 20.3455 29.9457 20.3455 30.0429C20.3455 30.2148 20.2933 30.3494 20.1964 30.4466C20.0921 30.5437 19.9356 30.5886 19.7194 30.5886C19.5182 30.5886 19.3617 30.5437 19.2425 30.454C19.1232 30.3643 19.0562 30.2148 19.0264 30.013H19.3468C19.3617 30.1176 19.399 30.1924 19.4586 30.2373C19.5108 30.2821 19.6002 30.3045 19.7194 30.3045C19.8238 30.3045 19.9058 30.2821 19.9505 30.2447C19.9952 30.2073 20.0175 30.1475 20.0175 30.0578C20.0175 30.0055 20.0101 29.9681 19.9952 29.9308C19.9803 29.9009 19.9505 29.871 19.9058 29.8411C19.861 29.8186 19.8014 29.7887 19.7269 29.7588L19.5406 29.6916C19.4288 29.6467 19.3394 29.6019 19.2648 29.557C19.1978 29.5122 19.1456 29.4523 19.1158 29.3925C19.086 29.3327 19.0711 29.2505 19.0711 29.1533C19.0711 29.0562 19.0934 28.9665 19.1382 28.8917C19.1829 28.817 19.2499 28.7571 19.3394 28.7123C19.4288 28.6674 19.5406 28.645 19.6822 28.645C19.8909 28.645 20.0399 28.6973 20.1442 28.802C20.2486 28.9067 20.3007 29.0487 20.3082 29.2281H19.9877C19.9877 29.1309 19.9505 29.0562 19.9058 29.0038C19.861 28.9515 19.7791 28.9291 19.6747 28.9291L19.6822 28.9366Z" fill="#F2F0ED"/>
<path d="M23.9222 30.5666L23.7582 30.3872C23.6837 30.4545 23.6017 30.5068 23.5049 30.5442C23.408 30.5815 23.3111 30.5965 23.2068 30.5965C23.0801 30.5965 22.9683 30.5741 22.8639 30.5292C22.7596 30.4844 22.6776 30.4171 22.6106 30.3274C22.5509 30.2377 22.5137 30.133 22.5137 30.0134C22.5137 29.8789 22.5509 29.7742 22.6255 29.6845C22.7 29.5948 22.7969 29.52 22.9087 29.4677C22.8714 29.4229 22.8341 29.3705 22.8118 29.3332C22.7894 29.2883 22.7671 29.2509 22.7522 29.2061C22.7372 29.1612 22.7298 29.1164 22.7298 29.0641C22.7298 28.9669 22.7522 28.8846 22.8043 28.8099C22.849 28.7426 22.9161 28.6903 22.9981 28.6529C23.0801 28.6155 23.1695 28.6006 23.2664 28.6006C23.3633 28.6006 23.4452 28.6155 23.5198 28.6529C23.5943 28.6903 23.6539 28.7351 23.6986 28.8024C23.7433 28.8697 23.7657 28.9444 23.7657 29.0342C23.7657 29.1538 23.7284 29.2584 23.6614 29.3556C23.5943 29.4453 23.5049 29.52 23.4005 29.5724L23.7582 29.9611C23.7806 29.9162 23.8029 29.8639 23.8179 29.8041C23.8328 29.7518 23.8402 29.6845 23.8477 29.6247H24.1458C24.1309 29.7294 24.1085 29.8265 24.0712 29.9237C24.0414 30.0134 24.0042 30.1031 23.952 30.1779L24.3172 30.5741H23.9147L23.9222 30.5666ZM23.2142 30.3124C23.2813 30.3124 23.3483 30.3049 23.408 30.2825C23.4676 30.2601 23.5198 30.2302 23.5645 30.1853L23.0875 29.6621C23.013 29.6995 22.9534 29.7443 22.9161 29.7966C22.8714 29.849 22.849 29.9162 22.849 29.9985C22.849 30.0657 22.8639 30.1181 22.8937 30.1704C22.9236 30.2152 22.9683 30.2526 23.0204 30.275C23.0726 30.2975 23.1322 30.3124 23.1993 30.3124H23.2142ZM23.0503 29.0715C23.0503 29.1239 23.0652 29.1687 23.0875 29.2136C23.1173 29.2584 23.1546 29.3033 23.2068 29.3631C23.2738 29.3332 23.3334 29.2958 23.3782 29.2509C23.4229 29.1986 23.4452 29.1388 23.4452 29.0715C23.4452 29.0117 23.4303 28.9669 23.3931 28.9295C23.3558 28.8921 23.3111 28.8697 23.2515 28.8697C23.1918 28.8697 23.1397 28.8921 23.1024 28.9295C23.0652 28.9669 23.0503 29.0192 23.0503 29.079V29.0715Z" fill="#F2F0ED"/>
<path d="M26.7166 29.8639V30.5665H26.3887V28.6753H26.9849C27.1339 28.6753 27.2606 28.6977 27.3575 28.7351C27.4544 28.7799 27.5364 28.8397 27.5811 28.922C27.6258 29.0042 27.6556 29.1014 27.6556 29.221V29.3182C27.6556 29.4378 27.6258 29.5349 27.5587 29.6247C27.4916 29.7069 27.4022 29.7667 27.283 29.8041L27.7301 30.5591H27.3649L26.9774 29.8564H26.7166V29.8639ZM26.97 28.9594H26.7166V29.5798H26.97C27.0967 29.5798 27.1861 29.5574 27.2457 29.505C27.3053 29.4602 27.3351 29.3929 27.3351 29.3107V29.2359C27.3351 29.1836 27.3202 29.1313 27.2979 29.0939C27.2755 29.0565 27.2308 29.0192 27.1786 28.9967C27.1265 28.9743 27.0594 28.9594 26.97 28.9594Z" fill="#F2F0ED"/>
<path d="M28.7441 30.5665V28.6753H29.9663V28.9594H29.072V29.4452H29.8173V29.7293H29.072V30.2825H29.9663V30.5665H28.7441Z" fill="#F2F0ED"/>
<path d="M31.5611 28.9366C31.494 28.9366 31.4419 28.944 31.3971 28.9665C31.3599 28.9889 31.3301 29.0113 31.3077 29.0412C31.2853 29.0711 31.2853 29.1085 31.2853 29.1533C31.2853 29.1982 31.2928 29.2356 31.3077 29.2655C31.3226 29.2954 31.3524 29.3178 31.3897 29.3402C31.4269 29.3626 31.4791 29.3851 31.5462 29.415L31.7399 29.4897C31.8666 29.5346 31.9635 29.5869 32.0306 29.6318C32.0977 29.6841 32.1498 29.7364 32.1796 29.8037C32.2095 29.871 32.2244 29.9457 32.2244 30.0429C32.2244 30.2148 32.1722 30.3494 32.0753 30.4466C31.971 30.5437 31.8145 30.5886 31.5984 30.5886C31.3971 30.5886 31.2406 30.5437 31.1214 30.454C31.0022 30.3643 30.9351 30.2148 30.9053 30.013H31.2257C31.2406 30.1176 31.2779 30.1924 31.3375 30.2373C31.3897 30.2821 31.4791 30.3045 31.5984 30.3045C31.7027 30.3045 31.7847 30.2821 31.8294 30.2447C31.8741 30.2073 31.8965 30.1475 31.8965 30.0578C31.8965 30.0055 31.889 29.9681 31.8741 29.9308C31.8592 29.9009 31.8294 29.871 31.7847 29.8411C31.74 29.8186 31.6803 29.7887 31.6058 29.7588L31.4195 29.6916C31.3077 29.6467 31.2183 29.6019 31.1438 29.557C31.0767 29.5122 31.0245 29.4523 30.9947 29.3925C30.9649 29.3327 30.95 29.2505 30.95 29.1533C30.95 29.0562 30.9723 28.9665 31.0171 28.8917C31.0618 28.817 31.1288 28.7571 31.2183 28.7123C31.3077 28.6674 31.4195 28.645 31.5611 28.645C31.7698 28.645 31.9188 28.6973 32.0231 28.802C32.1275 28.9067 32.1796 29.0487 32.1871 29.2281H31.8666C31.8666 29.1309 31.8294 29.0562 31.7847 29.0038C31.74 28.9515 31.658 28.9291 31.5536 28.9291L31.5611 28.9366Z" fill="#F2F0ED"/>
<path d="M33.9835 30.5889C33.8345 30.5889 33.7003 30.559 33.5885 30.5067C33.4768 30.4544 33.3948 30.3721 33.3277 30.2675C33.2681 30.1628 33.2383 30.0283 33.2383 29.8788V29.363C33.2383 29.206 33.2681 29.0789 33.3277 28.9743C33.3873 28.8696 33.4768 28.7874 33.5885 28.7351C33.7003 28.6827 33.827 28.6528 33.9835 28.6528C34.14 28.6528 34.2667 28.6827 34.3785 28.7351C34.4903 28.7874 34.5723 28.8696 34.6393 28.9743C34.699 29.0789 34.7288 29.206 34.7288 29.363V29.8788C34.7288 30.0358 34.699 30.1628 34.6393 30.2675C34.5797 30.3721 34.4903 30.4544 34.3785 30.5067C34.2667 30.559 34.14 30.5889 33.9835 30.5889ZM33.9835 28.9369C33.8419 28.9369 33.745 28.9743 33.678 29.0565C33.6109 29.1387 33.5736 29.2434 33.5736 29.3779V29.8713C33.5736 30.0059 33.6109 30.1105 33.678 30.1853C33.745 30.2675 33.8494 30.3049 33.9835 30.3049C34.1177 30.3049 34.222 30.2675 34.2891 30.1853C34.3562 30.103 34.3934 29.9984 34.3934 29.8638V29.3705C34.3934 29.2359 34.3562 29.1312 34.2891 29.049C34.222 28.9668 34.1177 28.9294 33.9835 28.9294V28.9369Z" fill="#F2F0ED"/>
<path d="M36.1668 29.8639V30.5665H35.8389V28.6753H36.4351C36.5841 28.6753 36.7108 28.6977 36.8077 28.7351C36.9046 28.7799 36.9865 28.8397 37.0313 28.922C37.076 29.0042 37.1058 29.1014 37.1058 29.221V29.3182C37.1058 29.4378 37.076 29.5349 37.0089 29.6247C36.9418 29.7069 36.8524 29.7667 36.7332 29.8041L37.1803 30.5591H36.8151L36.4276 29.8564H36.1668V29.8639ZM36.4202 28.9594H36.1668V29.5798H36.4202C36.5469 29.5798 36.6363 29.5574 36.6959 29.505C36.7555 29.4602 36.7853 29.3929 36.7853 29.3107V29.2359C36.7853 29.1836 36.7704 29.1313 36.7481 29.0939C36.7257 29.0565 36.681 29.0192 36.6288 28.9967C36.5767 28.9743 36.5096 28.9594 36.4202 28.9594Z" fill="#F2F0ED"/>
<path d="M39.4085 28.9594H38.8719V30.5665H38.544V28.9594H38V28.6753H39.4011V28.9594H39.4085Z" fill="#F2F0ED"/>
<path d="M40.9136 28.9366C40.8466 28.9366 40.7944 28.944 40.7497 28.9665C40.7124 28.9889 40.6826 29.0113 40.6602 29.0412C40.6379 29.0711 40.6379 29.1085 40.6379 29.1533C40.6379 29.1982 40.6453 29.2356 40.6602 29.2655C40.6752 29.2954 40.705 29.3178 40.7422 29.3402C40.7795 29.3626 40.8317 29.3851 40.8987 29.415L41.0925 29.4897C41.2192 29.5346 41.3161 29.5869 41.3831 29.6318C41.4502 29.6841 41.5024 29.7364 41.5322 29.8037C41.562 29.871 41.5769 29.9457 41.5769 30.0429C41.5769 30.2148 41.5247 30.3494 41.4279 30.4466C41.3235 30.5437 41.167 30.5886 40.9509 30.5886C40.7497 30.5886 40.5932 30.5437 40.4739 30.454C40.3547 30.3643 40.2876 30.2148 40.2578 30.013H40.5783C40.5932 30.1176 40.6304 30.1924 40.6901 30.2373C40.7422 30.2821 40.8317 30.3045 40.9509 30.3045C41.0552 30.3045 41.1372 30.2821 41.1819 30.2447C41.2266 30.2073 41.249 30.1475 41.249 30.0578C41.249 30.0055 41.2415 29.9681 41.2266 29.9308C41.2117 29.9009 41.1819 29.871 41.1372 29.8411C41.0925 29.8186 41.0329 29.7887 40.9583 29.7588L40.772 29.6916C40.6602 29.6467 40.5708 29.6019 40.4963 29.557C40.4292 29.5122 40.3771 29.4523 40.3472 29.3925C40.3174 29.3327 40.3025 29.2505 40.3025 29.1533C40.3025 29.0562 40.3249 28.9665 40.3696 28.8917C40.4143 28.817 40.4814 28.7571 40.5708 28.7123C40.6602 28.6674 40.772 28.645 40.9136 28.645C41.1223 28.645 41.2713 28.6973 41.3757 28.802C41.48 28.9067 41.5322 29.0487 41.5396 29.2281H41.2192C41.2192 29.1309 41.1819 29.0562 41.1372 29.0038C41.0925 28.9515 41.0105 28.9291 40.9062 28.9291L40.9136 28.9366Z" fill="#F2F0ED"/>
<path d="M24.4958 0C22.2824 0 20.4863 1.80154 20.4863 4.02169V14.7487H28.5126V4.02169C28.5126 1.80901 26.7091 0 24.5032 0H24.4958ZM25.9192 10.3308H23.0798V6.5857C23.0798 5.8008 23.7132 5.1654 24.4958 5.1654C25.2783 5.1654 25.9117 5.8008 25.9117 6.5857V10.3308H25.9192Z" fill="#FCB415"/>
<path d="M25.9955 10.3521H23.0049V6.51832C23.0049 5.71423 23.6751 5.06104 24.5002 5.06104C25.3253 5.06104 25.9955 5.71423 25.9955 6.51832V10.3521Z" fill="#FEFFFF"/>
</svg>
