<svg width="128" height="78" viewBox="0 0 128 78" fill="none" xmlns="http://www.w3.org/2000/svg">
<path d="M10.9019 59.0621H14.6981V61.6348C13.7831 62.6829 11.9532 63.5595 9.67544 63.5595C5.82084 63.5595 2.97856 60.5295 2.97856 56.5656C2.97856 52.6018 5.82084 49.5908 9.55863 49.5908C11.8753 49.5908 13.861 50.6771 15.0096 52.5828L17.3652 51.2488C15.8856 48.4093 12.8292 46.9229 9.67544 46.9229C4.20502 46.9229 0 51.2488 0 56.5085C0 61.7682 4.22449 66.1703 9.67544 66.1703C13.3938 66.1703 16.1971 64.4743 17.5014 62.6257V56.4704H10.9019V59.0812V59.0621Z" fill="#0E3C20"/>
<path d="M28.4031 46.9043C23.1858 46.9043 20.7134 50.1249 20.7134 55.2893V65.8469H23.6141V60.0155H33.1922V65.8469H36.0928V55.2893C36.0928 50.1249 33.562 46.9043 28.4031 46.9043ZM33.2116 57.3665H23.6335V55.4418C23.6335 51.7448 25.2299 49.5913 28.4226 49.5913C31.6153 49.5913 33.2116 51.7638 33.2116 55.4418V57.3665Z" fill="#0E3C20"/>
<path d="M37.0469 49.8388H42.8482V65.8276H45.7489V49.8388H51.5892V47.228H37.0469V49.8388Z" fill="#0E3C20"/>
<path d="M56.8851 57.8046H66.5216V55.2319H56.8851V49.8198H67.0861V47.2471H56.6514C54.6852 47.2471 53.9844 48.219 53.9844 49.8007V63.293C53.9844 64.8747 54.6852 65.8466 56.6514 65.8466H67.2808V63.2739H56.8656V57.8427L56.8851 57.8046Z" fill="#0E3C20"/>
<path d="M89.1039 62.8191C89.0455 63.2003 88.9287 63.4099 88.6756 63.4099C88.4225 63.4099 88.3057 63.2193 88.1889 62.8191L84.9183 49.5555C84.529 47.8404 83.5945 47.0781 82.2512 47.0781C80.908 47.0781 79.9735 47.8595 79.6231 49.5746L76.4693 62.8191C76.3915 63.2574 76.2163 63.429 75.9827 63.429C75.749 63.429 75.6128 63.2384 75.5349 62.8191L72.2254 47.2496H69.3247L72.9846 63.6767C73.3545 65.3156 74.4642 66.2113 75.9243 66.2113C77.287 66.2113 78.3966 65.3156 78.7665 63.772L81.9787 50.1653C82.0371 49.9176 82.1539 49.8033 82.2707 49.8033C82.407 49.8033 82.5043 49.9176 82.5627 50.1653L85.8528 63.6005C86.2811 65.2965 87.3323 66.1732 88.8313 66.1732C90.3303 66.1732 91.3621 65.1441 91.6931 63.5052L95.061 47.2306H92.1603L89.1039 62.8001V62.8191Z" fill="#0E3C20"/>
<path d="M104.016 46.9043C98.7986 46.9043 96.3262 50.1249 96.3262 55.2893V65.8469H99.2269V60.0155H108.805V65.8469H111.706V55.2893C111.706 50.1249 109.175 46.9043 104.016 46.9043ZM108.824 57.3665H99.2463V55.4418C99.2463 51.7448 100.843 49.5913 104.035 49.5913C107.228 49.5913 108.824 51.7638 108.824 55.4418V57.3665Z" fill="#0E3C20"/>
<path d="M125.1 47.228V53.4978C125.1 56.0323 123.717 58.0524 120.953 58.0524C118.188 58.0524 116.904 56.0323 116.904 53.4978V47.228H114.003V53.8027C114.003 57.3091 115.911 59.9962 119.512 60.5488V65.8276H122.413V60.5488C126.073 59.9962 128 57.3282 128 53.8027V47.228H125.1Z" fill="#0E3C20"/>
<path d="M22.2713 77.9215V75.7681H20.2272V77.9215H19.3706V73.1001H20.2272V75.0439H22.2713V73.1001H23.1279V77.9215H22.2713Z" fill="#0E3C20"/>
<path d="M27.9751 77.9748C27.5857 77.9748 27.2353 77.8986 26.9433 77.7652C26.6513 77.6318 26.4371 77.4221 26.2619 77.1554C26.1062 76.8886 26.0283 76.5455 26.0283 76.1644V74.8495C26.0283 74.4493 26.1062 74.1253 26.2619 73.8585C26.4177 73.5917 26.6513 73.3821 26.9433 73.2487C27.2353 73.1153 27.5663 73.0391 27.9751 73.0391C28.3839 73.0391 28.7149 73.1153 29.0069 73.2487C29.2989 73.3821 29.513 73.5917 29.6882 73.8585C29.844 74.1253 29.9219 74.4493 29.9219 74.8495V76.1644C29.9219 76.5646 29.844 76.8886 29.6882 77.1554C29.5325 77.4221 29.2989 77.6318 29.0069 77.7652C28.7149 77.8986 28.3839 77.9748 27.9751 77.9748ZM27.9751 73.7632C27.6052 73.7632 27.3521 73.8585 27.1769 74.0681C27.0017 74.2778 26.9044 74.5446 26.9044 74.8876V76.1453C26.9044 76.4884 27.0017 76.7552 27.1769 76.9457C27.3521 77.1554 27.6247 77.2506 27.9751 77.2506C28.3255 77.2506 28.5981 77.1554 28.7733 76.9457C28.9485 76.7361 29.0458 76.4693 29.0458 76.1263V74.8685C29.0458 74.5255 28.9485 74.2587 28.7733 74.0491C28.5981 73.8395 28.3255 73.7442 27.9751 73.7442V73.7632Z" fill="#0E3C20"/>
<path d="M35.9372 73.8243H34.5355V77.9215H33.679V73.8243H32.2578V73.1001H35.9177V73.8243H35.9372Z" fill="#0E3C20"/>
<path d="M38.5269 77.9215V73.1001H41.7196V73.8243H39.3834V75.063H41.3302V75.7871H39.3834V77.1973H41.7196V77.9215H38.5269Z" fill="#0E3C20"/>
<path d="M44.4839 77.9215V73.1001H45.3405V77.1973H47.5208V77.9215H44.5034H44.4839Z" fill="#0E3C20"/>
<path d="M51.4143 73.7637C51.2391 73.7637 51.1028 73.7828 50.986 73.84C50.8887 73.8971 50.8108 73.9543 50.7524 74.0305C50.694 74.1067 50.694 74.202 50.694 74.3164C50.694 74.4307 50.7135 74.526 50.7524 74.6022C50.7914 74.6785 50.8692 74.7356 50.9666 74.7928C51.0639 74.85 51.2002 74.9071 51.3754 74.9834L51.8816 75.1739C52.2125 75.2883 52.4656 75.4217 52.6408 75.536C52.816 75.6694 52.9523 75.8028 53.0301 75.9743C53.108 76.1458 53.147 76.3364 53.147 76.5841C53.147 77.0225 53.0107 77.3655 52.7576 77.6132C52.4851 77.861 52.0762 77.9753 51.5117 77.9753C50.986 77.9753 50.5772 77.861 50.2657 77.6323C49.9543 77.4036 49.779 77.0225 49.7012 76.5079H50.5383C50.5772 76.7747 50.6746 76.9653 50.8303 77.0796C50.9666 77.194 51.2002 77.2511 51.5117 77.2511C51.7842 77.2511 51.9984 77.194 52.1152 77.0987C52.232 77.0034 52.2904 76.8509 52.2904 76.6223C52.2904 76.4889 52.2709 76.3936 52.232 76.2983C52.193 76.2221 52.1152 76.1458 51.9984 76.0696C51.8816 76.0124 51.7258 75.9362 51.5311 75.86L51.0444 75.6885C50.7524 75.5741 50.5188 75.4598 50.3241 75.3455C50.1489 75.2311 50.0127 75.0787 49.9348 74.9262C49.8569 74.7737 49.818 74.5641 49.818 74.3164C49.818 74.0686 49.8764 73.84 49.9932 73.6494C50.11 73.4588 50.2852 73.3064 50.5188 73.192C50.7524 73.0777 51.0444 73.0205 51.4143 73.0205C51.9594 73.0205 52.3488 73.1539 52.6213 73.4207C52.8939 73.6875 53.0301 74.0496 53.0496 74.5069H52.2125C52.2125 74.2592 52.1152 74.0686 51.9984 73.9352C51.8816 73.8018 51.6674 73.7447 51.3949 73.7447L51.4143 73.7637Z" fill="#0E3C20"/>
<path d="M62.4914 77.9197L62.0631 77.4623C61.8684 77.6338 61.6543 77.7672 61.4012 77.8625C61.1481 77.9578 60.8951 77.9959 60.6225 77.9959C60.2916 77.9959 59.9995 77.9387 59.727 77.8244C59.4544 77.7101 59.2403 77.5385 59.0651 77.3099C58.9094 77.0812 58.812 76.8144 58.812 76.5095C58.812 76.1665 58.9094 75.8997 59.104 75.671C59.2987 75.4423 59.5518 75.2517 59.8438 75.1183C59.7465 75.004 59.6491 74.8706 59.5907 74.7753C59.5323 74.661 59.4739 74.5657 59.435 74.4513C59.396 74.337 59.3766 74.2226 59.3766 74.0892C59.3766 73.8415 59.435 73.6319 59.5713 73.4413C59.6881 73.2698 59.8633 73.1364 60.0774 73.0411C60.2916 72.9458 60.5252 72.9077 60.7782 72.9077C61.0313 72.9077 61.2455 72.9458 61.4401 73.0411C61.6348 73.1364 61.7906 73.2507 61.9074 73.4223C62.0242 73.5938 62.0826 73.7843 62.0826 74.013C62.0826 74.3179 61.9852 74.5847 61.81 74.8325C61.6348 75.0611 61.4012 75.2517 61.1287 75.3851L62.0631 76.3761C62.1215 76.2617 62.1799 76.1283 62.2189 75.9759C62.2578 75.8425 62.2773 75.671 62.2967 75.5185H63.0754C63.0365 75.7853 62.9781 76.033 62.8808 76.2808C62.8029 76.5095 62.7055 76.7382 62.5693 76.9287L63.5232 77.9387H62.4719L62.4914 77.9197ZM60.642 77.2717C60.8172 77.2717 60.9924 77.2527 61.1481 77.1955C61.3039 77.1383 61.4402 77.0621 61.557 76.9478L60.311 75.6138C60.1163 75.7091 59.9606 75.8234 59.8633 75.9568C59.7465 76.0902 59.6881 76.2617 59.6881 76.4714C59.6881 76.6429 59.727 76.7763 59.8049 76.9097C59.8827 77.024 59.9995 77.1193 60.1358 77.1765C60.2721 77.2336 60.4278 77.2717 60.603 77.2717H60.642ZM60.2137 74.1083C60.2137 74.2417 60.2526 74.356 60.311 74.4704C60.3889 74.5847 60.4862 74.6991 60.6225 74.8515C60.7977 74.7753 60.9535 74.68 61.0703 74.5657C61.1871 74.4323 61.2455 74.2798 61.2455 74.1083C61.2455 73.9558 61.2065 73.8415 61.1092 73.7462C61.0119 73.6509 60.8951 73.5938 60.7393 73.5938C60.5836 73.5938 60.4473 73.6509 60.35 73.7462C60.2526 73.8415 60.2137 73.9749 60.2137 74.1274V74.1083Z" fill="#0E3C20"/>
<path d="M69.7916 76.1301V77.9215H68.9351V73.1001H70.4925C70.8818 73.1001 71.2128 73.1573 71.4659 73.2525C71.7189 73.3669 71.9331 73.5193 72.0499 73.729C72.1667 73.9386 72.2446 74.1863 72.2446 74.4913V74.739C72.2446 75.0439 72.1667 75.2916 71.9915 75.5203C71.8163 75.73 71.5827 75.8824 71.2712 75.9777L72.4392 77.9024H71.4853L70.473 76.1111H69.7916V76.1301ZM70.4535 73.8243H69.7916V75.406H70.4535C70.7845 75.406 71.0181 75.3488 71.1738 75.2154C71.3296 75.1011 71.4075 74.9296 71.4075 74.7199V74.5294C71.4075 74.396 71.3685 74.2626 71.3101 74.1673C71.2517 74.072 71.1349 73.9767 70.9986 73.9195C70.8624 73.8624 70.6871 73.8243 70.4535 73.8243Z" fill="#0E3C20"/>
<path d="M75.0869 77.9215V73.1001H78.2796V73.8243H75.9435V75.063H77.8903V75.7871H75.9435V77.1973H78.2796V77.9215H75.0869Z" fill="#0E3C20"/>
<path d="M82.4461 73.7637C82.2709 73.7637 82.1346 73.7828 82.0178 73.84C81.9204 73.8971 81.8426 73.9543 81.7842 74.0305C81.7258 74.1067 81.7258 74.202 81.7258 74.3164C81.7258 74.4307 81.7452 74.526 81.7842 74.6022C81.8231 74.6785 81.901 74.7356 81.9983 74.7928C82.0956 74.85 82.2319 74.9071 82.4071 74.9834L82.9133 75.1739C83.2442 75.2883 83.4973 75.4217 83.6725 75.536C83.8477 75.6694 83.984 75.8028 84.0619 75.9743C84.1398 76.1458 84.1787 76.3364 84.1787 76.5841C84.1787 77.0225 84.0424 77.3655 83.7893 77.6132C83.5168 77.861 83.108 77.9753 82.5434 77.9753C82.0178 77.9753 81.609 77.861 81.2975 77.6323C80.986 77.4036 80.8108 77.0225 80.7329 76.5079H81.57C81.609 76.7747 81.7063 76.9653 81.862 77.0796C81.9983 77.194 82.2319 77.2511 82.5434 77.2511C82.816 77.2511 83.0301 77.194 83.1469 77.0987C83.2637 77.0034 83.3221 76.8509 83.3221 76.6223C83.3221 76.4889 83.3026 76.3936 83.2637 76.2983C83.2248 76.2221 83.1469 76.1458 83.0301 76.0696C82.9133 76.0124 82.7575 75.9362 82.5629 75.86L82.0762 75.6885C81.7842 75.5741 81.5506 75.4598 81.3559 75.3455C81.1807 75.2311 81.0444 75.0787 80.9665 74.9262C80.8886 74.7737 80.8497 74.5641 80.8497 74.3164C80.8497 74.0686 80.9081 73.84 81.0249 73.6494C81.1417 73.4588 81.3169 73.3064 81.5505 73.192C81.7842 73.0777 82.0762 73.0205 82.4461 73.0205C82.9912 73.0205 83.3805 73.1539 83.6531 73.4207C83.9256 73.6875 84.0619 74.0496 84.0813 74.5069H83.2442C83.2442 74.2592 83.1469 74.0686 83.0301 73.9352C82.9133 73.8018 82.6991 73.7447 82.4266 73.7447L82.4461 73.7637Z" fill="#0E3C20"/>
<path d="M88.7729 77.9748C88.3836 77.9748 88.0332 77.8986 87.7412 77.7652C87.4491 77.6318 87.235 77.4221 87.0598 77.1554C86.904 76.8886 86.8262 76.5455 86.8262 76.1644V74.8495C86.8262 74.4493 86.904 74.1253 87.0598 73.8585C87.2155 73.5917 87.4491 73.3821 87.7412 73.2487C88.0332 73.1153 88.3641 73.0391 88.7729 73.0391C89.1818 73.0391 89.5127 73.1153 89.8047 73.2487C90.0967 73.3821 90.3109 73.5917 90.4861 73.8585C90.6418 74.1253 90.7197 74.4493 90.7197 74.8495V76.1644C90.7197 76.5646 90.6418 76.8886 90.4861 77.1554C90.3304 77.4221 90.0967 77.6318 89.8047 77.7652C89.5127 77.8986 89.1818 77.9748 88.7729 77.9748ZM88.7729 73.7632C88.4031 73.7632 88.15 73.8585 87.9748 74.0681C87.7996 74.2778 87.7022 74.5446 87.7022 74.8876V76.1453C87.7022 76.4884 87.7996 76.7552 87.9748 76.9457C88.15 77.1554 88.4225 77.2506 88.7729 77.2506C89.1234 77.2506 89.3959 77.1554 89.5711 76.9457C89.7463 76.7361 89.8437 76.4693 89.8437 76.1263V74.8685C89.8437 74.5255 89.7463 74.2587 89.5711 74.0491C89.3959 73.8395 89.1234 73.7442 88.7729 73.7442V73.7632Z" fill="#0E3C20"/>
<path d="M94.4772 76.1301V77.9215H93.6206V73.1001H95.178C95.5674 73.1001 95.8983 73.1573 96.1514 73.2525C96.4045 73.3669 96.6186 73.5193 96.7354 73.729C96.8522 73.9386 96.9301 74.1863 96.9301 74.4913V74.739C96.9301 75.0439 96.8522 75.2916 96.677 75.5203C96.5018 75.73 96.2682 75.8824 95.9567 75.9777L97.1248 77.9024H96.1709L95.1586 76.1111H94.4772V76.1301ZM95.1391 73.8243H94.4772V75.406H95.1391C95.47 75.406 95.7037 75.3488 95.8594 75.2154C96.0151 75.1011 96.093 74.9296 96.093 74.7199V74.5294C96.093 74.396 96.0541 74.2626 95.9957 74.1673C95.9373 74.072 95.8205 73.9767 95.6842 73.9195C95.5479 73.8624 95.3727 73.8243 95.1391 73.8243Z" fill="#0E3C20"/>
<path d="M102.945 73.8243H101.544V77.9215H100.687V73.8243H99.2661V73.1001H102.926V73.8243H102.945Z" fill="#0E3C20"/>
<path d="M106.878 73.7637C106.702 73.7637 106.566 73.7828 106.449 73.84C106.352 73.8971 106.274 73.9543 106.216 74.0305C106.157 74.1067 106.157 74.202 106.157 74.3164C106.157 74.4307 106.177 74.526 106.216 74.6022C106.255 74.6785 106.333 74.7356 106.43 74.7928C106.527 74.85 106.664 74.9071 106.839 74.9834L107.345 75.1739C107.676 75.2883 107.929 75.4217 108.104 75.536C108.279 75.6694 108.416 75.8028 108.494 75.9743C108.571 76.1458 108.61 76.3364 108.61 76.5841C108.61 77.0225 108.474 77.3655 108.221 77.6132C107.948 77.861 107.54 77.9753 106.975 77.9753C106.449 77.9753 106.041 77.861 105.729 77.6323C105.418 77.4036 105.242 77.0225 105.165 76.5079H106.002C106.041 76.7747 106.138 76.9653 106.294 77.0796C106.43 77.194 106.664 77.2511 106.975 77.2511C107.248 77.2511 107.462 77.194 107.579 77.0987C107.695 77.0034 107.754 76.8509 107.754 76.6223C107.754 76.4889 107.734 76.3936 107.695 76.2983C107.656 76.2221 107.579 76.1458 107.462 76.0696C107.345 76.0124 107.189 75.9362 106.995 75.86L106.508 75.6885C106.216 75.5741 105.982 75.4598 105.788 75.3455C105.612 75.2311 105.476 75.0787 105.398 74.9262C105.32 74.7737 105.281 74.5641 105.281 74.3164C105.281 74.0686 105.34 73.84 105.457 73.6494C105.573 73.4588 105.749 73.3064 105.982 73.192C106.216 73.0777 106.508 73.0205 106.878 73.0205C107.423 73.0205 107.812 73.1539 108.085 73.4207C108.357 73.6875 108.494 74.0496 108.513 74.5069H107.676C107.676 74.2592 107.579 74.0686 107.462 73.9352C107.345 73.8018 107.131 73.7447 106.858 73.7447L106.878 73.7637Z" fill="#0E3C20"/>
<path d="M63.9902 0C58.2083 0 53.5166 4.59272 53.5166 10.2526V37.5993H74.4833V10.2526C74.4833 4.61177 69.7721 0 64.0097 0H63.9902ZM67.7085 26.3367H60.2914V16.7891C60.2914 14.7882 61.9461 13.1683 63.9902 13.1683C66.0343 13.1683 67.6891 14.7882 67.6891 16.7891V26.3367H67.7085Z" fill="#FCB415"/>
<path d="M67.906 26.3901H60.0938V16.6165C60.0938 14.5666 61.8446 12.9014 63.9999 12.9014C66.1551 12.9014 67.906 14.5666 67.906 16.6165V26.3901Z" fill="white"/>
</svg>
