<svg width="13" height="18" viewBox="0 0 13 18" fill="none" xmlns="http://www.w3.org/2000/svg">
<g clip-path="url(#clip0_1_4)">
<path d="M7.13393 17.6437L12.1339 12.7789C12.6221 12.3039 12.6221 11.5339 12.1339 11.0589C11.6457 10.584 10.8542 10.5839 10.3661 11.0589L7.49999 13.8476V1.21622C7.49999 0.5445 6.94037 0 6.24999 0C5.55962 0 4.99999 0.5445 4.99999 1.21622V13.8476L2.13387 11.0589C1.64568 10.5839 0.854242 10.5839 0.366117 11.0589C-0.122008 11.5339 -0.12207 12.304 0.366117 12.7789L5.36605 17.6437C5.5903 17.862 5.9108 18 6.24999 18C6.5823 18 6.9058 17.8658 7.13393 17.6437Z" fill="#AD8B3A"/>
</g>
<defs>
<clipPath id="clip0_1_4">
<rect width="13" height="18" fill="white"/>
</clipPath>
</defs>
</svg>
