<svg width="13" height="18" viewBox="0 0 13 18" fill="none" xmlns="http://www.w3.org/2000/svg">
<g clip-path="url(#clip0_1_14)">
<path d="M12.6339 5.22109L7.63414 0.356473C7.39452 0.123203 7.0682 0 6.75002 0C6.42927 0 6.10252 0.126122 5.86589 0.356534L0.866141 5.22116C0.377953 5.69615 0.377953 6.4662 0.866141 6.94113C1.35433 7.41606 2.14577 7.41612 2.63389 6.94113L5.50002 4.15241V16.7838C5.50002 17.4555 6.05964 18 6.75002 18C7.44039 18 8.00002 17.4555 8.00002 16.7838V4.15241L10.8661 6.94107C11.3543 7.416 12.1457 7.41606 12.6339 6.94107C13.1221 6.46614 13.1221 5.69603 12.6339 5.22109Z" fill="#AD8B3A"/>
</g>
<defs>
<clipPath id="clip0_1_14">
<rect width="13" height="18" fill="white"/>
</clipPath>
</defs>
</svg>
