<svg width="11" height="14" viewBox="0 0 11 14" fill="none" xmlns="http://www.w3.org/2000/svg">
<path opacity="0.5" d="M9.87393 14H1.12629C1.09923 13.9916 1.07217 13.9829 1.04472 13.9752C0.379596 13.7878 0.000722082 13.3047 0.000340921 12.6408C-4.02402e-05 10.6086 -0.000421401 8.57682 0.00110324 6.54463C0.0014844 5.96349 0.40399 5.46146 0.986023 5.29083C1.20595 5.2263 1.42931 5.23615 1.65191 5.24198C1.79027 5.24562 1.83411 5.20078 1.83258 5.0688C1.8261 4.5449 1.82382 4.02099 1.83106 3.49708C1.84859 2.21885 2.43329 1.23448 3.53904 0.529375C4.00253 0.233698 4.52472 0.0823958 5.07131 0C5.35718 0 5.64305 0 5.92892 0C6.04098 0.0204167 6.15342 0.0386458 6.26472 0.0616146C8.02569 0.420365 9.20271 1.93411 9.17184 3.52479C9.16155 4.04396 9.17298 4.56349 9.16841 5.08302C9.16726 5.20187 9.20957 5.24964 9.33421 5.24125C9.43865 5.23432 9.54385 5.23943 9.64829 5.24016C10.3847 5.24672 10.9972 5.8275 10.9984 6.53115C11.0014 8.59505 10.9991 10.659 10.9999 12.7229C10.9999 12.8381 10.982 12.9496 10.9465 13.059C10.7803 13.5723 10.406 13.8684 9.87355 14H9.87393ZM5.50049 5.23943C6.24833 5.23943 6.99617 5.23651 7.74401 5.24198C7.88351 5.24307 7.92506 5.1975 7.92354 5.06771C7.91744 4.54818 7.92239 4.02901 7.92087 3.50948C7.91591 2.08359 6.63445 1.01682 5.15897 1.20896C3.98462 1.36208 3.08622 2.33734 3.08012 3.46865C3.07745 3.99729 3.07936 4.52557 3.07936 5.05422C3.07936 5.23505 3.08355 5.23906 3.27108 5.23906C4.01435 5.23906 4.75723 5.23906 5.50049 5.23906V5.23943ZM4.90893 10.4778C4.90893 10.6688 4.90779 10.8602 4.90893 11.0512C4.9116 11.3983 5.15364 11.6415 5.49554 11.643C5.84506 11.6444 6.08939 11.4009 6.09091 11.0461C6.09244 10.6776 6.09663 10.3086 6.08863 9.94C6.08558 9.80839 6.12903 9.72562 6.23995 9.64396C6.6981 9.30599 6.8296 8.72266 6.57156 8.23266C6.31618 7.7474 5.73567 7.49292 5.18718 7.6424C4.71606 7.77073 4.41419 8.07406 4.32385 8.53417C4.23504 8.98661 4.38865 9.37234 4.77553 9.65599C4.87387 9.72781 4.91617 9.80146 4.91122 9.91813C4.90283 10.1044 4.90893 10.2911 4.90931 10.4778H4.90893Z" fill="#45443F"/>
</svg>
