<svg width="26" height="22" viewBox="0 0 26 22" fill="none" xmlns="http://www.w3.org/2000/svg">
<path d="M2.53846 17H9.30769C9.53211 17 9.74733 16.9104 9.90601 16.751C10.0647 16.5916 10.1538 16.3754 10.1538 16.15C10.1538 15.9246 10.0647 15.7084 9.90601 15.549C9.74733 15.3896 9.53211 15.3 9.30769 15.3H2.53846C2.31411 15.2998 2.099 15.2102 1.94036 15.0508C1.78172 14.8915 1.69251 14.6754 1.69231 14.45V4.02968L9.71842 8.73409C10.1076 8.95849 10.5484 9.07656 10.9971 9.07656C11.4458 9.07656 11.8867 8.95849 12.2758 8.73409L20.3077 4.02628V8.5C20.3077 8.72543 20.3968 8.94164 20.5555 9.10104C20.7142 9.26045 20.9294 9.35 21.1538 9.35C21.3783 9.35 21.5935 9.26045 21.7522 9.10104C21.9109 8.94164 22 8.72543 22 8.5V2.55C21.9993 1.87393 21.7316 1.22575 21.2557 0.747698C20.7798 0.269641 20.1346 0.000742457 19.4615 0H2.53846C1.8695 0.0137065 1.23173 0.286767 0.758597 0.762046C0.285469 1.23732 0.0136445 1.87799 0 2.55V14.45C0.000739098 15.1261 0.268421 15.7742 0.744314 16.2523C1.22021 16.7304 1.86545 16.9993 2.53846 17ZM2.53846 1.7H19.4615C19.609 1.70172 19.7534 1.74262 19.88 1.81853C20.0066 1.89445 20.111 2.00267 20.1825 2.13223L11.4231 7.26648C11.2937 7.34173 11.1468 7.38135 10.9973 7.38135C10.8478 7.38135 10.701 7.34173 10.5716 7.26648L1.81576 2.13469C1.88714 2.00446 1.99166 1.8956 2.11863 1.81923C2.2456 1.74286 2.39048 1.70171 2.53846 1.7Z" fill="white"/>
<path d="M10 21.1483C9.99993 21.3284 10.0586 21.5039 10.1677 21.65C10.2768 21.7961 10.4309 21.9053 10.6079 21.9622C10.7854 22.0135 10.9747 22.0126 11.1516 21.9594C11.3284 21.9062 11.4848 21.8032 11.6007 21.6636C12.3482 20.7063 13.3153 19.9291 14.4262 19.393C15.537 18.8569 16.7614 18.5764 18.0033 18.5735V21.1486C18.0077 21.3109 18.059 21.4687 18.1516 21.6042C18.2441 21.7397 18.3741 21.8474 18.5269 21.9152C18.6797 21.983 18.849 22.0082 19.0158 21.9878C19.1826 21.9674 19.3402 21.9023 19.4706 21.7999L25.6954 16.6497C25.7912 16.5682 25.8678 16.4679 25.9203 16.3556C25.9728 16.2434 26 16.1216 26 15.9984C26 15.8752 25.9728 15.7534 25.9203 15.6411C25.8678 15.5288 25.7912 15.4286 25.6954 15.3471L19.4706 10.1964C19.3403 10.0934 19.1827 10.0278 19.0156 10.0071C18.8485 9.98636 18.6788 10.0114 18.5258 10.0794C18.3728 10.1474 18.2427 10.2555 18.1503 10.3914C18.0579 10.5274 18.007 10.6857 18.0033 10.8482V13.4233C15.8815 13.4256 13.8472 14.2402 12.3468 15.6884C10.8465 17.1366 10.0024 19.1002 10 21.1483ZM12.376 18.5806C12.8809 17.5521 13.6776 16.6829 14.6736 16.0739C15.6697 15.4648 16.8242 15.1409 18.0033 15.1397H18.8926C19.0094 15.1398 19.1251 15.1176 19.233 15.0745C19.3409 15.0314 19.439 14.9682 19.5216 14.8884C19.6041 14.8087 19.6696 14.7141 19.7143 14.6099C19.759 14.5057 19.7819 14.3941 19.7819 14.2813V12.7138L23.7514 15.9981L19.7819 19.2823V17.7148C19.7819 17.6021 19.759 17.4904 19.7143 17.3862C19.6697 17.282 19.6042 17.1874 19.5216 17.1077C19.439 17.0279 19.3409 16.9647 19.233 16.9216C19.1251 16.8785 19.0094 16.8564 18.8926 16.8564H18.0033C15.9888 16.8606 14.0243 17.4626 12.376 18.5806Z" fill="white"/>
</svg>
