<svg width="25" height="21" viewBox="0 0 25 21" fill="none" xmlns="http://www.w3.org/2000/svg">
<g id="Frame" clip-path="url(#clip0_1310_20176)">
<path id="Vector" d="M18.8915 20.8694C18.6841 20.8692 18.4852 20.7867 18.3386 20.64C18.1919 20.4934 18.1094 20.2945 18.1092 20.0871V18.7789C18.1092 14.6453 14.3982 11.2822 9.83688 11.2822C7.62663 11.2822 5.5473 12.0659 3.98179 13.4893C2.42302 14.9063 1.56456 16.7849 1.56461 18.7792V20.0875C1.56461 20.295 1.48219 20.494 1.33548 20.6407C1.18877 20.7874 0.989787 20.8698 0.782306 20.8698C0.574826 20.8698 0.375843 20.7874 0.229132 20.6407C0.0824213 20.494 0 20.295 0 20.0875V18.7792C0 16.7692 0.703312 14.865 2.03399 13.2724C3.20328 11.8729 4.81428 10.8047 6.61438 10.2257C5.15018 9.18288 4.26097 7.49768 4.26097 5.70677C4.26097 4.22795 4.84843 2.80969 5.89411 1.76401C6.9398 0.71832 8.35805 0.130859 9.83688 0.130859C11.3157 0.130859 12.734 0.71832 13.7796 1.76401C14.8253 2.80969 15.4128 4.22795 15.4128 5.70677C15.4128 7.49778 14.5235 9.18303 13.0595 10.2257C14.8594 10.8042 16.4704 11.8724 17.6398 13.2721C18.9704 14.8645 19.6738 16.7689 19.6738 18.779V20.0873C19.6735 20.2947 19.591 20.4935 19.4443 20.6401C19.2977 20.7867 19.0989 20.8692 18.8915 20.8694ZM9.83688 1.69502C9.04352 1.69502 8.26797 1.93028 7.60832 2.37105C6.94866 2.81182 6.43453 3.4383 6.13092 4.17126C5.82731 4.90423 5.74788 5.71077 5.90265 6.48889C6.05743 7.267 6.43947 7.98175 7.00046 8.54274C7.56145 9.10373 8.2762 9.48577 9.05431 9.64054C9.83243 9.79532 10.639 9.71588 11.3719 9.41228C12.1049 9.10867 12.7314 8.59453 13.1721 7.93488C13.6129 7.27523 13.8482 6.49968 13.8482 5.70632C13.847 4.64283 13.424 3.62324 12.672 2.87123C11.92 2.11923 10.9004 1.69623 9.83688 1.69502Z" fill="#8B8A84"/>
<path id="Vector_2" d="M24.2181 18.7397C24.0107 18.7395 23.8119 18.657 23.6652 18.5103C23.5186 18.3636 23.4361 18.1648 23.4358 17.9574V16.9401C23.4358 13.8208 20.6806 11.283 17.294 11.283C17.1913 11.283 17.0896 11.2628 16.9947 11.2234C16.8998 11.1841 16.8135 11.1265 16.7409 11.0539C16.6682 10.9812 16.6106 10.895 16.5713 10.8001C16.532 10.7052 16.5118 10.6035 16.5118 10.5007C16.5118 10.398 16.532 10.2963 16.5713 10.2014C16.6106 10.1065 16.6682 10.0202 16.7409 9.94759C16.8135 9.87495 16.8998 9.81733 16.9947 9.77802C17.0896 9.73871 17.1913 9.71847 17.294 9.71847C18.0754 9.71847 18.8247 9.40808 19.3772 8.85559C19.9297 8.30309 20.2401 7.55375 20.2401 6.7724C20.2401 5.99106 19.9297 5.24171 19.3772 4.68922C18.8247 4.13672 18.0754 3.82633 17.294 3.82633C17.0865 3.82633 16.8876 3.74391 16.7409 3.5972C16.5941 3.45049 16.5117 3.25151 16.5117 3.04403C16.5117 2.83655 16.5941 2.63756 16.7409 2.49085C16.8876 2.34414 17.0865 2.26172 17.294 2.26172C18.2224 2.26075 19.1284 2.54657 19.8882 3.0801C20.6479 3.61363 21.2243 4.36882 21.5385 5.2424C21.8528 6.11598 21.8895 7.06529 21.6437 7.96053C21.3978 8.85576 20.8815 9.65321 20.1652 10.2438C23.0763 11.3388 25.0002 13.975 25.0002 16.9399V17.9572C25.0001 18.1646 24.9176 18.3635 24.771 18.5102C24.6244 18.6568 24.4255 18.7394 24.2181 18.7397Z" fill="#8B8A84"/>
</g>
<defs>
<clipPath id="clip0_1310_20176">
<rect width="25" height="20.739" fill="white" transform="translate(0 0.130859)"/>
</clipPath>
</defs>
</svg>
