<svg width="20" height="27" viewBox="0 0 20 27" fill="none" xmlns="http://www.w3.org/2000/svg">
<g opacity="0.7">
<path d="M10 19.099C13.8038 19.099 16.8984 15.9675 16.8984 12.1185V6.98058C16.8978 3.1315 13.8031 0 10 0C6.19688 0 3.10161 3.1315 3.10161 6.98058V12.1191C3.10161 15.9682 6.19625 19.0997 10 19.0997V19.099ZM4.87758 6.98058C4.87758 4.1225 7.17557 1.79713 10 1.79713C12.8244 1.79713 15.1224 4.1225 15.1224 6.98058V12.1191C15.1224 14.9772 12.8244 17.3025 10 17.3025C7.17557 17.3025 4.87758 14.9772 4.87758 12.1191V6.98058Z" fill="#45443F"/>
<path d="M18.2234 13.1114C18.2234 17.2615 14.8871 20.6375 10.7859 20.6375H9.2135C5.11227 20.6375 1.77597 17.2615 1.77597 13.1114H0C0 18.2178 4.0784 22.3782 9.11201 22.4334V24.5225H10.888V22.4334C15.9216 22.3775 20 18.2178 20 13.1114H18.2234Z" fill="#45443F"/>
<path d="M16.0104 25.2029H3.9896V27H16.0104V25.2029Z" fill="#45443F"/>
</g>
</svg>
