<svg xmlns="http://www.w3.org/2000/svg" width="25" height="24" viewBox="0 0 25 24" fill="none">
  <path d="M6.06125 17.84H4.73752C3.22482 17.84 1.99878 16.614 1.99878 15.1013V9.6238C1.99878 8.1111 3.22482 6.88505 4.73752 6.88505H21.2613C22.774 6.88505 24 8.1111 24 9.6238V15.1013C24 16.614 22.774 17.84 21.2613 17.84H19.9376M4.96592 14.1906H21.0332M11.1735 17.1095H14.8252M11.1735 20.035H14.8252M18.8422 9.80725H21.0332M18.5681 23.0002H7.43053C6.67427 23.0002 6.06115 22.387 6.06115 21.6308V14.1905H19.9375V21.6308C19.9375 22.387 19.3243 23.0002 18.5681 23.0002ZM17.1986 1H8.79983C7.28727 1 6.06109 2.22618 6.06109 3.73874V6.8883H19.9374V3.73874C19.9374 2.22618 18.7112 1 17.1986 1Z" stroke="#AD8B3A" stroke-width="2" stroke-miterlimit="10" stroke-linecap="round" stroke-linejoin="round"/>
</svg>