<svg width="25" height="24" viewBox="0 0 25 24" fill="none" xmlns="http://www.w3.org/2000/svg">
<path d="M6.06123 17.8398H4.7375C3.2248 17.8398 1.99876 16.6138 1.99876 15.1011V9.62361C1.99876 8.11091 3.2248 6.88487 4.7375 6.88487H21.2613C22.774 6.88487 24 8.11091 24 9.62361V15.1011C24 16.6138 22.774 17.8398 21.2613 17.8398H19.9375" stroke="white" stroke-width="2" stroke-miterlimit="10" stroke-linecap="round" stroke-linejoin="round"/>
<path d="M4.9659 14.1904H21.0332" stroke="white" stroke-width="2" stroke-miterlimit="10" stroke-linecap="round" stroke-linejoin="round"/>
<path d="M18.5681 23H7.43057C6.67431 23 6.0612 22.3869 6.0612 21.6306V14.1904H19.9375V21.6306C19.9375 22.3869 19.3244 23 18.5681 23Z" stroke="white" stroke-width="2" stroke-miterlimit="10" stroke-linecap="round" stroke-linejoin="round"/>
<path d="M11.1726 17.1094H14.8242" stroke="white" stroke-width="2" stroke-miterlimit="10" stroke-linecap="round" stroke-linejoin="round"/>
<path d="M11.1726 20.0352H14.8242" stroke="white" stroke-width="2" stroke-miterlimit="10" stroke-linecap="round" stroke-linejoin="round"/>
<path d="M18.8422 9.80664H21.0332" stroke="white" stroke-width="2" stroke-miterlimit="10" stroke-linecap="round" stroke-linejoin="round"/>
<path d="M17.1988 0.999394H8.79994C7.28738 0.999394 6.0612 2.22558 6.0612 3.73814V6.8877H19.9375V3.73814C19.9375 2.22558 18.7113 0.999394 17.1988 0.999394Z" stroke="white" stroke-width="2" stroke-miterlimit="10" stroke-linecap="round" stroke-linejoin="round"/>
</svg>
