<svg width="60" height="60" viewBox="0 0 60 60" fill="none" xmlns="http://www.w3.org/2000/svg">
<circle opacity="0.4" cx="30" cy="30" r="29.5" stroke="#45443F"/>
<path d="M30.274 20.0005C30.9329 20.2807 31.1402 20.5969 31.1402 21.3229C31.1402 24.6879 31.1402 28.0524 31.1402 31.4174V31.6544C31.2386 31.6502 31.2709 31.5773 31.3178 31.5304C32.0923 30.7591 32.8595 29.9805 33.6398 29.2149C34.1169 28.7466 34.7976 28.7519 35.2482 29.2034C35.6904 29.6471 35.6904 30.3513 35.2284 30.8159C33.7596 32.2924 32.2871 33.7653 30.8099 35.2335C30.3375 35.7027 29.6578 35.6975 29.1838 35.2262C27.7124 33.7616 26.2451 32.2924 24.7789 30.8221C24.4471 30.4898 24.3341 30.0893 24.4862 29.6404C24.6351 29.2003 24.9591 28.9503 25.4159 28.8779C25.6836 28.8357 25.9326 28.9019 26.1602 29.0456C26.2878 29.1258 26.3951 29.23 26.5014 29.3362C27.2191 30.0544 27.9369 30.7726 28.6562 31.4893C28.7083 31.5414 28.7468 31.6169 28.8374 31.6273C28.8812 31.545 28.8604 31.4596 28.8604 31.3778C28.8614 28.0258 28.8614 24.6744 28.8614 21.3224C28.8614 20.5958 29.0682 20.2802 29.7276 20H30.2745L30.274 20.0005Z" fill="#45443F"/>
<path d="M20 34.1798C20.2417 33.5913 20.6068 33.308 21.1204 33.3111C21.7287 33.3153 22.2236 33.8054 22.2397 34.4132C22.2527 34.9069 22.209 35.4017 22.2736 35.8949C22.3939 36.8131 23.2075 37.6199 24.1237 37.7282C24.3247 37.7516 24.5252 37.7615 24.7268 37.7615C28.2942 37.761 31.861 37.761 35.4284 37.7615C36.3196 37.7615 37.0139 37.4074 37.4738 36.6303C37.6749 36.2907 37.7509 35.9163 37.7587 35.5277C37.766 35.1762 37.7587 34.8246 37.7608 34.4731C37.7639 33.8845 38.1338 33.4366 38.7051 33.3273C39.2229 33.2283 39.7495 33.5418 39.9557 34.0715C39.9698 34.108 39.9854 34.1439 40 34.1798V36.0939C39.9917 36.1251 39.9802 36.1558 39.975 36.1876C39.7573 37.5902 39.0296 38.6532 37.8296 39.3985C37.2967 39.7297 36.7066 39.899 36.0935 40H23.9065C23.882 39.9922 23.8575 39.9813 23.8325 39.9776C22.4131 39.7641 21.3407 39.0292 20.5917 37.8136C20.2662 37.2855 20.0984 36.7011 20 36.0939V34.1798Z" fill="#45443F"/>
</svg>
