<svg width="60" height="60" viewBox="0 0 60 60" fill="none" xmlns="http://www.w3.org/2000/svg">
<g id="Group 732">
<circle id="Ellipse 11" opacity="0.4" cx="30" cy="30" r="29.5" stroke="#45443F"/>
<path id="Printer" d="M24.8237 33.7774H23.7407C22.5031 33.7774 21.5 32.7744 21.5 31.5368V27.0554C21.5 25.8178 22.5031 24.8148 23.7407 24.8148H37.2593C38.4969 24.8148 39.5 25.8178 39.5 27.0554V31.5368C39.5 32.7744 38.4969 33.7774 37.2593 33.7774H36.1763M23.9275 30.7917H37.0727M29.0062 33.1798H31.9937M29.0062 35.5732H31.9937M35.2802 27.2055H37.0727M35.0559 37.9991H25.9439C25.3252 37.9991 24.8236 37.4975 24.8236 36.8788V30.7916H36.1763V36.8788C36.1763 37.4975 35.6747 37.9991 35.0559 37.9991ZM33.9356 20H27.0642C25.8267 20 24.8235 21.0032 24.8235 22.2407V24.8174H36.1762V22.2407C36.1762 21.0032 35.173 20 33.9356 20Z" stroke="#45443F" stroke-width="1.5" stroke-miterlimit="10" stroke-linecap="round" stroke-linejoin="round"/>
</g>
</svg>
