<svg width="26" height="23" viewBox="0 0 26 23" fill="none" xmlns="http://www.w3.org/2000/svg">
<g id="Group 956">
<path id="Vector" d="M2.53846 17.5273H9.30769C9.53211 17.5273 9.74733 17.4378 9.90601 17.2784C10.0647 17.119 10.1538 16.9028 10.1538 16.6773C10.1538 16.4519 10.0647 16.2357 9.90601 16.0763C9.74733 15.9169 9.53211 15.8273 9.30769 15.8273H2.53846C2.31411 15.8271 2.099 15.7375 1.94036 15.5782C1.78172 15.4188 1.69251 15.2027 1.69231 14.9773V4.55702L9.71842 9.26143C10.1076 9.48583 10.5484 9.60391 10.9971 9.60391C11.4458 9.60391 11.8867 9.48583 12.2758 9.26143L20.3077 4.55362V9.02734C20.3077 9.25278 20.3968 9.46898 20.5555 9.62838C20.7142 9.78779 20.9294 9.87734 21.1538 9.87734C21.3783 9.87734 21.5935 9.78779 21.7522 9.62838C21.9109 9.46898 22 9.25278 22 9.02734V3.07734C21.9993 2.40127 21.7316 1.7531 21.2557 1.27504C20.7798 0.796985 20.1346 0.528086 19.4615 0.527344H2.53846C1.8695 0.54105 1.23173 0.81411 0.758597 1.28939C0.285469 1.76467 0.0136445 2.40534 0 3.07734V14.9773C0.000739098 15.6534 0.268421 16.3016 0.744314 16.7796C1.22021 17.2577 1.86545 17.5266 2.53846 17.5273ZM2.53846 2.22734H19.4615C19.609 2.22907 19.7534 2.26996 19.88 2.34588C20.0066 2.42179 20.111 2.53002 20.1825 2.65957L11.4231 7.79382C11.2937 7.86907 11.1468 7.9087 10.9973 7.9087C10.8478 7.9087 10.701 7.86907 10.5716 7.79382L1.81576 2.66203C1.88714 2.5318 1.99166 2.42294 2.11863 2.34657C2.2456 2.2702 2.39048 2.22906 2.53846 2.22734Z" fill="#AD8B3A"/>
<path id="Vector_2" d="M10 21.6756C9.99993 21.8557 10.0586 22.0313 10.1677 22.1774C10.2768 22.3235 10.4309 22.4327 10.6079 22.4895C10.7854 22.5409 10.9747 22.5399 11.1516 22.4867C11.3284 22.4335 11.4848 22.3305 11.6007 22.191C12.3482 21.2337 13.3153 20.4565 14.4262 19.9204C15.537 19.3842 16.7614 19.1037 18.0033 19.1009V21.676C18.0077 21.8382 18.059 21.996 18.1516 22.1315C18.2441 22.267 18.3741 22.3748 18.5269 22.4426C18.6797 22.5104 18.849 22.5355 19.0158 22.5151C19.1826 22.4947 19.3402 22.4296 19.4706 22.3272L25.6954 17.177C25.7912 17.0955 25.8678 16.9953 25.9203 16.883C25.9728 16.7707 26 16.6489 26 16.5257C26 16.4025 25.9728 16.2807 25.9203 16.1684C25.8678 16.0561 25.7912 15.9559 25.6954 15.8744L19.4706 10.7238C19.3403 10.6207 19.1827 10.5551 19.0156 10.5344C18.8485 10.5137 18.6788 10.5388 18.5258 10.6067C18.3728 10.6747 18.2427 10.7828 18.1503 10.9188C18.0579 11.0547 18.007 11.213 18.0033 11.3755V13.9506C15.8815 13.9529 13.8472 14.7675 12.3468 16.2157C10.8465 17.6639 10.0024 19.6275 10 21.6756ZM12.376 19.108C12.8809 18.0795 13.6776 17.2102 14.6736 16.6012C15.6697 15.9921 16.8242 15.6682 18.0033 15.667H18.8926C19.0094 15.6671 19.1251 15.645 19.233 15.6018C19.3409 15.5587 19.439 15.4955 19.5216 15.4158C19.6041 15.3361 19.6696 15.2414 19.7143 15.1372C19.759 15.0331 19.7819 14.9214 19.7819 14.8087V13.2411L23.7514 16.5254L19.7819 19.8096V18.2421C19.7819 18.1294 19.759 18.0177 19.7143 17.9136C19.6697 17.8094 19.6042 17.7147 19.5216 17.635C19.439 17.5553 19.3409 17.4921 19.233 17.449C19.1251 17.4058 19.0094 17.3837 18.8926 17.3838H18.0033C15.9888 17.388 14.0243 17.9899 12.376 19.108Z" fill="#AD8B3A"/>
</g>
</svg>
