<svg width="60" height="60" viewBox="0 0 60 60" fill="none" xmlns="http://www.w3.org/2000/svg">
<g id="Group 729">
<circle id="Ellipse 9" opacity="0.4" cx="30" cy="30" r="29.5" stroke="#45443F"/>
<path id="Vector" fill-rule="evenodd" clip-rule="evenodd" d="M30.0002 21C24.9297 21 21 24.7143 21 29.7302C21 32.3542 22.0758 34.6214 23.8266 36.188C23.9734 36.3203 24.0622 36.5031 24.0692 36.7004L24.118 38.3014C24.1343 38.812 24.6612 39.1434 25.1283 38.9386L26.9139 38.1506C27.0659 38.0838 27.2342 38.0711 27.3938 38.1146C28.2142 38.3409 29.0888 38.4604 29.9998 38.4604C35.0703 38.4604 39 34.7462 39 29.7302C39 24.7143 35.0708 21 30.0002 21ZM35.4039 27.7184L32.7618 31.9104C32.3417 32.5766 31.4399 32.7436 30.8097 32.2707L28.7073 30.6935C28.5135 30.5485 28.249 30.5502 28.0574 30.6953L25.2158 32.8521C24.8374 33.14 24.3412 32.6856 24.5966 32.2835L27.2404 28.0893C27.6605 27.4231 28.5623 27.2561 29.1925 27.7289L31.2949 29.3061C31.4887 29.4512 31.7532 29.4494 31.9448 29.3044L34.7842 27.1493C35.163 26.8619 35.6592 27.3163 35.4039 27.7184Z" fill="#45443F"/>
</g>
</svg>
