<svg width="60" height="60" viewBox="0 0 60 60" fill="none" xmlns="http://www.w3.org/2000/svg">
<g id="Group 726">
<circle id="Ellipse 11" opacity="0.4" cx="30" cy="30" r="29.5" stroke="#45443F"/>
<g id="Vector">
<path d="M22 35.9973C22 33.4164 22 30.8354 22 28.2545C23.904 29.621 25.812 30.9808 27.7093 32.3582C29.508 33.6636 30.4893 33.6772 32.2987 32.3718C34.2 31.0012 36.1 29.6265 38 28.2545C38 30.8803 38 33.5074 38 36.1332C37.4893 36.8327 36.8027 37.0066 35.964 36.9998C31.936 36.9672 27.9067 36.9686 23.8787 36.9985C23.036 37.0052 22.42 36.7349 22 35.9973Z" fill="#45443F"/>
<path d="M22 26.2169C22 25.8542 22 25.4929 22 25.1302C22.3427 24.288 22.9693 23.996 23.8493 24C27.9573 24.0245 32.0653 24.0218 36.172 24.0014C36.988 23.9973 37.5907 24.2799 38 24.9944C38 25.4467 38 25.9004 38 26.3528C37.596 26.9736 37.2133 27.6025 36.5893 28.0412C34.84 29.2733 33.0933 30.5122 31.364 31.7741C30.448 32.4438 29.5867 32.4343 28.6733 31.7714C26.9587 30.5271 25.2187 29.3181 23.4973 28.0834C22.8333 27.6066 22.3507 26.9627 22 26.2169Z" fill="#45443F"/>
</g>
</g>
</svg>
