<svg width="60" height="60" viewBox="0 0 60 60" fill="none" xmlns="http://www.w3.org/2000/svg">
<g id="Group 730">
<circle id="Ellipse 11" opacity="0.4" cx="30" cy="30" r="29.5" stroke="#45443F"/>
<g id="Vector">
<path d="M30.1348 39.8545C28.4152 39.8353 26.8908 39.4751 25.4614 38.7381C25.3266 38.6685 25.2093 38.6564 25.0661 38.6943C23.4709 39.1149 21.8748 39.5318 20.2784 39.9479C20.195 39.9695 20.0945 40.0392 20.0254 39.9704C19.963 39.9083 20.0325 39.8124 20.0535 39.7348C20.4769 38.1903 20.9003 36.6453 21.3308 35.1029C21.3773 34.9357 21.3564 34.8023 21.2743 34.6514C20.5619 33.3378 20.1326 31.9396 20.0895 30.4438C19.9743 26.4364 21.6688 23.3906 25.0933 21.3104C26.4535 20.4842 27.9608 20.0702 29.5577 20.0089C32.684 19.8889 35.3166 20.9823 37.4298 23.2664C38.8793 24.8335 39.7202 26.6994 39.9393 28.8234C40.2529 31.8625 39.3504 34.5109 37.2594 36.7396C35.6663 38.4375 33.6845 39.4222 31.3769 39.7603C31.2392 39.7803 31.1009 39.7986 30.9619 39.8061C30.6491 39.8232 30.3379 39.8703 30.1348 39.8545ZM30.2206 38.129C30.4623 38.1374 30.9066 38.0965 31.3459 38.0231C33.2712 37.7013 34.9003 36.825 36.1893 35.3659C37.8851 33.4462 38.5489 31.1963 38.182 28.6729C37.8855 26.6348 36.9097 24.9444 35.3208 23.6249C33.4341 22.0583 31.2488 21.4576 28.8281 21.8032C26.665 22.1121 24.8948 23.1572 23.5463 24.8714C22.1776 26.6115 21.6219 28.6016 21.8392 30.7961C21.967 32.0859 22.3971 33.2815 23.1107 34.3692C23.2192 34.5343 23.2384 34.6797 23.1827 34.8719C22.9436 35.6978 22.7229 36.5286 22.498 37.3586C22.436 37.5879 22.4515 37.6029 22.6881 37.5416C23.5576 37.3173 24.4274 37.0947 25.2943 36.8613C25.4643 36.8154 25.5975 36.8379 25.7462 36.9276C27.057 37.7192 28.4809 38.1173 30.2206 38.1286V38.129Z" fill="#45443F"/>
<path d="M32.6321 34.6906C31.8916 34.7139 31.2304 34.423 30.5636 34.1649C28.7967 33.4816 27.4716 32.246 26.3371 30.779C25.8819 30.19 25.4505 29.5838 25.1925 28.8772C24.7545 27.6774 24.9065 26.591 25.8233 25.6501C26.0578 25.4092 26.335 25.2987 26.6655 25.31C26.8254 25.3154 26.985 25.3275 27.1446 25.3408C27.3276 25.3558 27.4335 25.4813 27.5001 25.6289C27.6685 26.0016 27.823 26.3809 27.9826 26.7574C28.099 27.0321 28.21 27.3089 28.3319 27.5811C28.4286 27.7975 28.4177 27.9988 28.2749 28.1885C28.0831 28.4441 27.8955 28.7029 27.6936 28.9497C27.5604 29.1127 27.5512 29.2582 27.6597 29.4396C28.4646 30.7844 29.5832 31.7624 31.0511 32.3381C31.2429 32.4132 31.4025 32.3902 31.5361 32.2256C31.7723 31.9342 32.0152 31.6482 32.2476 31.3543C32.4708 31.0725 32.5734 31.0341 32.9085 31.1755C33.5756 31.4573 34.2185 31.7904 34.8685 32.1084C35.09 32.2168 35.1243 32.4002 35.1034 32.6133C34.982 33.8393 34.0686 34.6702 32.8205 34.6893C32.7577 34.6902 32.6953 34.6893 32.6325 34.6893L32.6321 34.6906Z" fill="#45443F"/>
</g>
</g>
</svg>
