<svg width="30" height="19" viewBox="0 0 30 19" fill="none" xmlns="http://www.w3.org/2000/svg">
<path d="M7.13393 17.7609L12.1339 12.8961C12.6221 12.4211 12.6221 11.6511 12.1339 11.1761C11.6457 10.7012 10.8542 10.7011 10.3661 11.1761L7.49999 13.9648V1.3334C7.49999 0.661688 6.94037 0.117188 6.24999 0.117188C5.55962 0.117188 4.99999 0.661688 4.99999 1.3334V13.9648L2.13387 11.1761C1.64568 10.7011 0.854242 10.7011 0.366117 11.1761C-0.122008 11.6511 -0.12207 12.4212 0.366117 12.8961L5.36605 17.7609C5.5903 17.9791 5.9108 18.1172 6.24999 18.1172C6.5823 18.1172 6.9058 17.983 7.13393 17.7609Z" fill="#45443F"/>
<path d="M29.6339 5.33828L24.6341 0.47366C24.3945 0.24039 24.0682 0.117188 23.75 0.117188C23.4293 0.117188 23.1025 0.24331 22.8659 0.473722L17.8661 5.33834C17.378 5.81334 17.378 6.58338 17.8661 7.05832C18.3543 7.53325 19.1458 7.53331 19.6339 7.05832L22.5 4.26959V16.901C22.5 17.5727 23.0596 18.1172 23.75 18.1172C24.4404 18.1172 25 17.5727 25 16.901V4.26959L27.8661 7.05826C28.3543 7.53319 29.1457 7.53325 29.6339 7.05826C30.1221 6.58332 30.1221 5.81321 29.6339 5.33828Z" fill="#45443F"/>
</svg>
