<svg width="107" height="95" viewBox="0 0 107 95" fill="none" xmlns="http://www.w3.org/2000/svg">
<path d="M87.338 11.5245L81.1813 8.1341L84.2572 6.42912L87.338 11.5245ZM89.1594 3.70798V10.5035L86.0883 5.43251L89.1594 3.70798ZM87.0571 12.8143L90.4915 10.9236V0L77.1462 7.35733L87.0571 12.8143Z" fill="#AD8B3A"/>
<path d="M78.8222 20.8604V17.47H84.9741L78.8222 20.8604ZM78.8222 12.0668L84.9693 15.4524H78.8222V12.0668ZM85.9962 14.5779L76.0902 9.10629V23.8161L85.9962 18.3542V14.5779Z" fill="#AD8B3A"/>
<path d="M98.8281 26.4883L95.7764 21.4174L101.919 24.8078L98.8281 26.4883ZM93.9162 29.1997V22.3944L96.9971 27.485L93.9162 29.1997ZM92.6035 21.9987V32.9175L105.949 25.5601L96.0379 20.1032L92.6035 21.9987Z" fill="#AD8B3A"/>
<path d="M104.282 15.4524H98.1354L104.282 12.0668V15.4524ZM104.282 20.8604L98.1209 17.47H104.282V20.8604ZM97.0939 14.5779V18.364L107 23.821V9.10629L97.0939 14.5779Z" fill="#AD8B3A"/>
<path d="M98.8281 6.42912L101.904 8.1341L95.7473 11.5245L98.8281 6.42912ZM93.9162 3.72263L96.9922 5.42762L93.9162 10.5182V3.72263ZM105.949 7.35733L92.5987 0V10.9236L96.0379 12.8143L105.949 7.35733Z" fill="#AD8B3A"/>
<path d="M84.2572 26.4883L81.1861 24.798L87.338 21.4174L84.2572 26.4883ZM89.1642 29.1948L86.0883 27.4996L89.1594 22.4237L89.1642 29.1948ZM77.1462 25.565L90.4867 32.9175V21.9987L87.0571 20.1032L77.1462 25.565Z" fill="#AD8B3A"/>
<path d="M17.1479 62.894C17.1479 68.1555 17.1479 72.6646 16.8427 75.0731C16.6635 76.7293 16.3002 78.0043 15.0843 78.2193C14.369 78.3695 13.6401 78.4448 12.9094 78.444C12.1779 78.444 11.9406 78.6199 11.9406 78.9032C11.9406 79.2941 12.362 79.4846 13.1467 79.4846C15.5687 79.4846 19.3907 79.3087 20.7809 79.3087C22.4763 79.3087 26.2934 79.4846 30.2946 79.4846C30.9583 79.4846 31.4378 79.2941 31.4378 78.9032C31.4378 78.6199 31.1375 78.444 30.469 78.444C29.4355 78.4273 28.4037 78.3523 27.3785 78.2193C25.5572 77.9848 25.2035 76.7293 25.0195 75.122C24.7094 72.6793 24.7094 68.1555 24.7094 62.9086V39.4589L32.3485 39.6299C37.7399 39.7472 39.3724 41.3496 39.4935 42.8298L39.5516 43.46C39.6146 44.3199 39.7405 44.5983 40.2201 44.5983C40.5882 44.5983 40.7045 44.2612 40.7674 43.6945C40.7674 42.2289 40.9515 38.2571 40.9515 37.0602C40.9515 36.2053 40.8885 35.8584 40.4671 35.8584C38.5548 36.255 36.6065 36.4482 34.6543 36.4349H10.6666C8.66599 36.4349 6.36507 36.3177 4.60668 36.1467C3.10019 36.0294 2.48499 35.4578 2.00059 35.4578C1.64213 35.4578 1.45321 35.7949 1.27398 36.5424C1.15288 37.0016 0 42.2045 0 43.1181C0 43.7434 0.125946 44.0316 0.542534 44.0316C0.959121 44.0316 1.09475 43.802 1.21101 43.3428C1.4437 42.6246 1.7941 41.9509 2.24763 41.3496C3.15347 40.0843 4.60668 39.8009 8.12346 39.6886L17.1479 39.4589V62.894Z" fill="#AD8B3A"/>
<path d="M51.0077 61.7117C50.7655 61.7117 50.7123 61.5407 50.7655 61.3062L56.2054 47.2462C56.2635 47.0166 56.3895 46.7332 56.559 46.7332C56.7285 46.7332 56.8012 47.0166 56.8593 47.2462L62.1878 61.3648C62.2508 61.5407 62.1878 61.7117 61.8971 61.7117H51.0077ZM63.0016 64.5696C63.1297 64.5563 63.2584 64.5885 63.3655 64.6608C63.4725 64.7331 63.5511 64.8408 63.5877 64.9653L68.3203 77.1103C68.3834 77.2303 68.4197 77.3628 68.4264 77.4985C68.4332 77.6341 68.4104 77.7696 68.3596 77.8954C68.3088 78.0212 68.2312 78.1342 68.1324 78.2265C68.0335 78.3187 67.9158 78.388 67.7875 78.4294C67.1965 78.4831 66.9592 78.6003 66.9592 78.9179C66.9592 79.2354 67.6712 79.3185 68.7369 79.4064C73.4647 79.5139 77.7759 79.5139 79.9073 79.5139C82.0387 79.5139 82.6248 79.4064 82.6248 78.9325C82.6248 78.5319 82.3341 78.4733 81.8594 78.4733C81.0258 78.4764 80.1937 78.3995 79.3744 78.2437C78.1344 77.9604 76.4196 77.1592 74.1719 72.01C70.3936 63.3287 60.9332 40.0012 59.5139 36.8355C58.9277 35.5262 58.5693 35.0133 58.0607 35.0133C57.552 35.0133 57.1209 35.6386 56.4137 37.2996L41.5522 73.202C40.3605 76.0648 39.2416 78.0043 36.5144 78.3463C35.9066 78.4189 35.2953 78.458 34.6833 78.4636C34.1989 78.4636 33.9713 78.5808 33.9713 78.9228C33.9713 79.4113 34.3297 79.5041 35.0951 79.5041C38.1807 79.5041 41.4311 79.3331 42.085 79.3331C43.9161 79.3331 46.4447 79.5041 48.3435 79.5041C48.9975 79.5041 49.3511 79.3967 49.3511 78.9228C49.3511 78.5808 49.167 78.4636 48.4598 78.4636H47.5733C45.7471 78.4636 45.2143 77.7161 45.2143 76.6902C45.3137 75.4855 45.6134 74.3064 46.1007 73.202L49.2736 65.024C49.3947 64.6771 49.5109 64.5696 49.8064 64.5696H63.0016Z" fill="#AD8B3A"/>
<path d="M88.6411 69.5136C88.6411 80.7499 88.7041 86.4413 84.2814 90.8479C83.4627 91.7039 82.5243 92.4346 81.4961 93.017C80.5273 93.5349 80.2221 93.7645 80.2221 94.0478C80.222 94.1105 80.2346 94.1725 80.2594 94.23C80.2841 94.2874 80.3204 94.3391 80.3658 94.3818C80.4113 94.4245 80.4651 94.4572 80.5237 94.4779C80.5824 94.4986 80.6446 94.5069 80.7065 94.5022C81.1129 94.4804 81.5089 94.3651 81.8643 94.1651C83.0801 93.5935 84.0102 93.1294 84.7707 92.6995C90.3268 89.3286 93.3931 85.3714 94.6089 81.8931C95.7764 78.6883 96.004 75.0243 96.004 71.7657C96.004 68.9078 95.8248 66.1671 95.8248 63.7V53.1037C95.8248 44.4176 95.8248 42.8152 95.941 40.9881C96.0621 38.9802 96.5175 38.008 98.087 37.7295C98.642 37.6173 99.2066 37.56 99.7727 37.5585C100.465 37.5585 100.809 37.4413 100.809 37.0456C100.809 36.6499 100.407 36.5277 99.5886 36.5277C97.3313 36.5277 93.6837 36.6987 92.2935 36.6987C90.7918 36.6987 87.1394 36.5277 84.0586 36.5277C83.1915 36.5277 82.7798 36.645 82.7798 37.0456C82.7798 37.4462 83.1286 37.5585 83.7486 37.5585C84.5047 37.5433 85.2606 37.6005 86.0059 37.7295C87.9435 38.1252 88.3795 39.0437 88.4958 40.9881C88.612 42.8152 88.612 44.4078 88.612 53.1037L88.6411 69.5136Z" fill="#AD8B3A"/>
</svg>
