<svg width="512" height="512" viewBox="0 0 512 512" fill="none" xmlns="http://www.w3.org/2000/svg">
<path d="M192.21 181.951L99.589 131.07L145.863 105.483L192.21 181.951ZM219.61 64.6465V166.628L173.409 90.5269L219.61 64.6465ZM187.983 201.307L239.65 172.934V9L38.8862 119.413L187.983 201.307Z" fill="#AD8B3A"/>
<path d="M64.1002 322.057V271.176H156.648L64.1002 322.057ZM64.1002 190.089L156.575 240.897H64.1002V190.089ZM172.024 227.774L23 145.66V366.413L172.024 284.446V227.774Z" fill="#AD8B3A"/>
<path d="M365.064 406.517L319.154 330.415L411.556 381.296L365.064 406.517ZM291.171 447.207V345.078L337.518 421.473L291.171 447.207ZM271.423 339.14V503L472.187 392.587L323.089 310.693L271.423 339.14Z" fill="#AD8B3A"/>
<path d="M447.118 240.897H354.643L447.118 190.089V240.897ZM447.118 322.057L354.424 271.176H447.118V322.057ZM338.976 227.774V284.593L488 366.486V145.66L338.976 227.774Z" fill="#AD8B3A"/>
<path d="M365.064 105.483L411.338 131.07L318.717 181.951L365.064 105.483ZM291.171 64.8664L337.445 90.4536L291.171 166.848V64.8664ZM472.187 119.413L271.35 9V172.934L323.089 201.307L472.187 119.413Z" fill="#AD8B3A"/>
<path d="M145.863 406.517L99.662 381.15L192.21 330.415L145.863 406.517ZM219.683 447.134L173.409 421.693L219.61 345.518L219.683 447.134ZM38.8862 392.66L239.577 503V339.14L187.983 310.693L38.8862 392.66Z" fill="#AD8B3A"/>
</svg>
