<svg width="41" height="37" viewBox="0 0 41 37" fill="none" xmlns="http://www.w3.org/2000/svg">
<path d="M33.0314 9.65659C32.6036 7.11495 31.3452 4.79539 29.4204 3.03516C27.2818 1.07752 24.5016 0 21.6063 0C19.369 0 17.1893 0.64158 15.3221 1.85071C13.7675 2.85421 12.4761 4.21139 11.5631 5.80712C11.1683 5.73309 10.757 5.69196 10.3458 5.69196C6.84999 5.69196 4.00401 8.53794 4.00401 12.0337C4.00401 12.4861 4.05336 12.9221 4.13562 13.3498C1.87364 14.9949 0.5 17.6434 0.5 20.4647C0.5 22.7432 1.34721 24.9558 2.89358 26.7078C4.48108 28.5009 6.57855 29.562 8.81585 29.6854C8.84053 29.6854 8.85698 29.6854 8.88166 29.6854H15.9555C16.5724 29.6854 17.0659 29.1919 17.0659 28.575C17.0659 27.958 16.5724 27.4645 15.9555 27.4645H8.91456C5.55038 27.2589 2.72085 24.0592 2.72085 20.4565C2.72085 18.1287 3.97111 15.9572 5.98633 14.781C6.45517 14.5096 6.65258 13.942 6.47162 13.432C6.30712 12.9879 6.22486 12.519 6.22486 12.0173C6.22486 9.74707 8.07557 7.89636 10.3458 7.89636C10.8311 7.89636 11.3081 7.97861 11.7523 8.14312C12.2952 8.34053 12.8956 8.09377 13.1424 7.57557C14.6805 4.3101 18.0036 2.2044 21.6145 2.2044C26.4675 2.2044 30.4733 5.84002 30.9339 10.6601C30.9832 11.1618 31.3616 11.5649 31.8551 11.6471C35.5154 12.2723 38.2791 15.6529 38.2791 19.5106C38.2791 23.5986 35.063 27.152 31.0984 27.4563H25.0363C24.4194 27.4563 23.9259 27.9498 23.9259 28.5667C23.9259 29.1836 24.4194 29.6772 25.0363 29.6772H31.1395C31.1642 29.6772 31.1889 29.6772 31.2218 29.6772C33.7305 29.4962 36.0748 28.3446 37.8185 26.4199C39.5541 24.5116 40.5 22.0605 40.5 19.5106C40.4918 14.8962 37.3415 10.7917 33.0314 9.65659Z" fill="black"/>
<path d="M27.1667 21.5176C27.6026 21.0816 27.6026 20.3825 27.1667 19.9465L21.2855 14.0654C21.0799 13.8598 20.792 13.7364 20.5041 13.7364C20.2162 13.7364 19.9283 13.8515 19.7227 14.0654L13.8416 19.9465C13.4056 20.3825 13.4056 21.0816 13.8416 21.5176C14.0554 21.7314 14.3433 21.8466 14.623 21.8466C14.9026 21.8466 15.1905 21.7397 15.4044 21.5176L19.3937 17.5283V35.8626C19.3937 36.4795 19.8872 36.9731 20.5041 36.9731C21.121 36.9731 21.6145 36.4795 21.6145 35.8626V17.5283L25.6038 21.5176C26.0316 21.9535 26.7307 21.9535 27.1667 21.5176Z" fill="black"/>
</svg>
