<svg width="80" height="81" viewBox="0 0 80 81" fill="none" xmlns="http://www.w3.org/2000/svg">
<mask id="mask0_12808_90495" style="mask-type:alpha" maskUnits="userSpaceOnUse" x="0" y="0" width="80" height="81">
<rect y="0.117188" width="80" height="80" rx="40" fill="#D7D5CF"/>
</mask>
<g mask="url(#mask0_12808_90495)">
<rect y="0.117188" width="80" height="80" rx="40" fill="#D7D5CF"/>
<path d="M41.8923 14C43.4315 14.372 45.0401 14.5677 46.4968 15.1462C52.4103 17.4968 55.9966 21.8237 57.0756 28.0602C58.3716 35.5527 54.223 42.8473 47.2761 45.9484C41.5385 48.5097 34.101 47.4237 29.4552 43.2602C25.1482 39.4 23.2639 34.6021 23.7588 28.8817C24.3819 21.6559 30.4104 15.3419 37.709 14.2538C38.1692 14.1849 38.6229 14.086 39.081 14C40.0188 14 40.9545 14 41.8923 14Z" fill="#8B8A84"/>
<path d="M70.9761 79.9975C70.9805 77.0104 71.0434 74.0211 70.9522 71.0362C70.898 69.2362 70.7438 67.4147 70.377 65.6556C69.4587 61.262 67.3572 57.4405 64.1791 54.2427C59.8307 49.8642 54.5511 47.3695 48.338 47.1373C43.6142 46.9609 38.8794 47.0426 34.1512 47.0405C31.5157 47.0405 28.9259 47.4061 26.4207 48.2469C21.4081 49.9308 17.3572 52.9136 14.3179 57.2061C11.8366 60.7158 10.3343 64.619 10.1346 68.9072C9.96527 72.5652 10.0261 76.2341 10 79.8986C10 79.933 10 79.9631 10.0022 79.9975H70.9761Z" fill="#8B8A84"/>
</g>
</svg>
